<?xml version="1.0" standalone="no"?>
<!DOCTYPE svg PUBLIC "-//W3C//DTD SVG 20010904//EN"
 "http://www.w3.org/TR/2001/REC-SVG-20010904/DTD/svg10.dtd">
<svg version="1.0" xmlns="http://www.w3.org/2000/svg"
 width="752.000000pt" height="752.000000pt" viewBox="0 0 752.000000 752.000000"
 preserveAspectRatio="xMidYMid meet">
<metadata>
Created by potrace 1.11, written by Peter Selinger 2001-2013
</metadata>
<g transform="translate(0.000000,752.000000) scale(0.100000,-0.100000)"
fill="#000000" stroke="none">
<path d="M5270 7343 c0 -6 8 -17 18 -24 16 -13 16 -13 2 6 -8 11 -16 22 -17
24 -2 2 -3 0 -3 -6z"/>
<path d="M5375 7300 c3 -4 -8 -10 -23 -13 -15 -3 -36 -9 -47 -13 -16 -6 -18
-5 -10 7 6 8 2 7 -7 -4 -10 -10 -33 -19 -52 -20 -19 -1 -32 -6 -29 -11 3 -4
-5 -5 -17 -1 -15 5 -20 4 -16 -4 4 -6 0 -11 -11 -11 -10 -1 -36 -8 -58 -16
-53 -20 -77 -25 -71 -15 3 4 -1 8 -9 8 -8 0 -13 -5 -12 -11 1 -6 -8 -11 -20
-10 -12 0 -20 -3 -17 -8 3 -4 -4 -8 -16 -8 -12 0 -31 -5 -42 -11 -13 -7 -18
-7 -14 -1 3 6 1 14 -5 18 -7 4 -9 3 -6 -2 10 -18 -7 -30 -65 -45 -51 -14 -56
-14 -51 0 2 9 -3 5 -11 -9 -8 -14 -15 -22 -16 -18 0 4 -17 1 -37 -6 -21 -7
-44 -11 -52 -8 -9 3 -11 0 -7 -7 4 -6 4 -10 -1 -9 -4 1 -25 -4 -47 -11 -32
-11 -40 -11 -47 0 -7 12 -9 11 -9 -1 0 -10 -22 -22 -65 -34 -61 -17 -83 -19
-78 -4 1 3 -5 12 -15 20 -15 11 -16 11 -6 -2 14 -20 12 -42 -5 -48 -9 -3 -11
0 -6 9 6 9 2 9 -11 -2 -10 -9 -25 -14 -33 -11 -10 3 -11 0 -5 -9 6 -11 3 -10
-11 1 -11 9 -16 10 -11 3 6 -12 -11 -18 -36 -14 -5 0 -8 -3 -8 -7 0 -5 -6 -9
-12 -9 -7 0 -22 -4 -33 -9 -17 -7 -18 -5 -8 7 10 13 10 16 -2 16 -7 0 -14 -3
-13 -6 2 -21 -5 -29 -27 -33 -13 -3 -26 0 -29 6 -2 6 -5 4 -5 -5 -1 -9 -7 -16
-15 -16 -8 0 -12 7 -10 16 3 9 -1 6 -7 -6 -14 -26 -29 -29 -48 -10 -10 10 -11
9 -6 -4 5 -12 -2 -18 -27 -24 -18 -5 -39 -8 -45 -8 -7 0 -13 -4 -13 -9 0 -6
-6 -8 -14 -5 -7 3 -19 0 -25 -6 -8 -8 -14 -7 -23 2 -11 11 -10 13 5 8 10 -4
16 -3 12 3 -3 5 4 7 15 5 11 -2 20 1 20 7 0 6 9 8 19 5 14 -3 18 -1 14 9 -4
10 -10 11 -25 3 -11 -6 -31 -13 -46 -15 -22 -4 -24 -3 -12 11 8 10 9 15 1 15
-6 0 -11 -4 -11 -8 0 -8 -15 -12 -54 -13 -17 0 -17 -1 -1 -13 11 -8 15 -19 11
-27 -4 -8 0 -5 8 5 9 11 16 24 16 29 0 4 5 5 10 2 8 -5 7 -12 -2 -23 -10 -12
-10 -14 0 -8 7 4 12 2 12 -4 0 -7 -7 -10 -15 -7 -8 4 -17 2 -20 -3 -10 -16
-28 -11 -21 5 3 9 -3 19 -14 25 -16 8 -18 8 -14 -5 4 -8 1 -15 -5 -15 -11 0
-15 13 -12 38 1 6 -2 12 -6 13 -4 0 -16 2 -25 4 -10 2 -21 -2 -25 -7 -3 -7 -1
-8 5 -4 7 4 12 1 12 -8 0 -18 -16 -21 -25 -6 -3 6 -11 10 -18 10 -6 0 -2 -7 9
-15 10 -8 14 -15 7 -15 -14 0 -43 28 -43 42 0 6 -3 9 -6 6 -3 -4 -1 -16 6 -27
7 -15 7 -21 0 -21 -6 0 -13 6 -16 14 -4 9 -19 13 -47 11 -53 -3 -52 -2 -37
-20 8 -10 21 -13 33 -9 14 4 17 3 12 -6 -6 -9 -4 -11 5 -5 7 4 16 2 22 -6 8
-11 9 -10 4 4 -7 21 7 22 28 2 9 -9 17 -11 21 -5 3 5 1 10 -6 10 -7 0 -10 2
-7 5 3 3 13 2 22 -1 14 -5 15 -9 4 -15 -9 -6 -6 -8 9 -6 18 1 20 4 10 16 -10
12 -9 14 6 8 10 -4 21 -7 24 -7 3 0 0 -7 -7 -15 -7 -8 -17 -12 -23 -8 -6 4 -8
0 -4 -11 5 -12 3 -15 -6 -9 -6 4 -20 8 -29 9 -10 1 -20 3 -23 4 -3 1 -8 3 -12
4 -5 1 -14 5 -20 9 -7 5 -13 6 -13 3 0 -3 -12 -1 -27 5 -16 6 -41 13 -58 16
-16 3 -37 9 -46 14 -9 4 -20 5 -24 1 -5 -4 -4 -1 0 7 6 11 4 13 -9 8 -10 -4
-19 -1 -23 9 -4 11 -8 12 -13 4 -5 -8 -19 -8 -53 2 -25 6 -43 16 -40 21 3 6 2
7 -3 4 -11 -6 -104 12 -104 21 0 3 8 15 18 26 15 19 15 19 0 7 -9 -7 -22 -10
-27 -6 -7 3 -8 0 -5 -9 3 -9 2 -16 -3 -16 -21 0 -73 22 -73 31 0 5 -5 9 -11 9
-5 0 -8 -4 -4 -10 7 -12 -103 26 -123 42 -13 10 -14 10 -8 1 4 -7 2 -13 -3
-13 -6 0 -11 5 -11 10 0 6 -6 10 -12 9 -28 -3 -39 1 -32 14 5 9 4 9 -6 0 -12
-11 -43 -7 -36 6 2 3 -15 7 -37 8 -30 1 -47 8 -61 25 -13 15 -17 17 -13 6 4
-10 2 -18 -3 -18 -6 0 -10 5 -10 10 0 6 -3 9 -7 8 -18 -5 -93 13 -93 22 0 5
-7 7 -15 3 -9 -3 -25 3 -37 13 -14 12 -18 14 -13 4 8 -13 7 -13 -8 -1 -9 7
-17 10 -17 5 0 -5 -5 -2 -10 6 -8 12 -10 12 -10 1 0 -9 -6 -7 -19 8 -11 13
-21 17 -23 11 -2 -8 -26 -5 -73 11 -39 12 -76 22 -82 22 -7 0 -13 7 -13 16 0
12 -2 13 -8 3 -9 -13 -42 -6 -42 9 0 5 -5 9 -11 9 -5 0 -7 -5 -3 -12 5 -7 3
-8 -7 -2 -8 5 -16 9 -19 9 -23 3 -110 30 -110 34 0 3 -16 7 -37 8 -20 1 -40 8
-45 15 -6 10 -10 7 -14 -9 -4 -13 -9 -23 -13 -23 -3 0 -7 -16 -8 -36 -1 -19
-7 -42 -14 -50 -6 -8 -8 -14 -4 -14 4 0 0 -12 -10 -26 -9 -15 -11 -23 -4 -19
9 6 10 4 3 -6 -5 -8 -9 -16 -10 -19 -10 -58 -19 -82 -33 -90 -9 -5 -11 -10 -4
-10 11 0 2 -41 -19 -83 -5 -10 -6 -23 -2 -29 5 -8 -1 -9 -17 -5 -22 6 -23 5
-6 -8 15 -11 16 -17 7 -34 -6 -12 -8 -21 -5 -21 3 0 -1 -16 -9 -35 -8 -19 -13
-35 -10 -35 3 0 0 -9 -6 -21 -8 -13 -18 -18 -28 -15 -14 5 -13 3 2 -8 17 -14
17 -17 3 -61 -19 -53 -46 -90 -67 -90 -8 0 -14 -8 -14 -18 1 -10 -3 -16 -10
-14 -6 2 -9 13 -8 23 3 15 0 14 -15 -6 -44 -57 -67 -95 -50 -81 9 7 17 9 17 3
0 -14 -18 -18 -72 -17 -28 0 -48 -4 -48 -10 0 -5 -4 -4 -9 4 -6 10 -13 11 -29
2 -23 -12 -38 0 -26 21 5 7 3 8 -5 4 -7 -5 -10 -14 -7 -22 3 -8 1 -14 -4 -14
-6 0 -10 6 -10 13 0 9 -3 8 -9 -2 -6 -9 -22 -12 -50 -9 -22 2 -41 -1 -41 -5 0
-5 -6 -4 -14 2 -8 7 -23 14 -34 16 -16 3 -19 0 -15 -12 4 -10 2 -14 -5 -9 -6
3 -13 2 -17 -4 -4 -7 -13 -7 -26 0 -11 6 -25 8 -31 4 -22 -14 -108 -15 -108
-1 0 9 -3 8 -9 -1 -6 -10 -34 -14 -90 -15 -46 -1 -81 -6 -81 -12 0 -5 -5 -3
-10 5 -6 9 -13 11 -17 5 -17 -21 -33 -15 -29 10 3 15 1 23 -5 20 -5 -4 -7 -10
-5 -14 12 -18 -15 -30 -77 -33 -66 -3 -67 -3 -67 -30 0 -16 -6 -28 -12 -28 -9
0 -9 -3 1 -9 10 -6 15 -32 17 -80 1 -39 5 -75 9 -81 3 -5 1 -10 -5 -10 -6 0
-8 -4 -5 -10 11 -18 14 -51 4 -45 -5 4 -9 1 -9 -5 0 -6 -4 -8 -10 -5 -5 3 -10
1 -10 -5 0 -6 8 -9 19 -5 15 4 18 0 17 -22 -1 -16 2 -38 6 -51 5 -15 4 -21 -2
-17 -11 7 -14 -8 -3 -19 11 -10 12 -36 2 -37 -19 -3 -25 -5 -47 -17 -12 -7
-27 -10 -32 -7 -6 3 -10 1 -10 -6 0 -7 -3 -10 -6 -6 -3 3 -2 13 4 23 6 11 11
13 16 5 5 -8 13 -8 27 -1 11 6 17 15 14 21 -4 5 -2 9 4 9 5 0 11 -5 13 -12 3
-7 7 -4 12 7 4 11 4 16 0 13 -10 -11 -45 12 -38 24 5 8 1 9 -11 5 -9 -4 -23
-3 -29 1 -14 11 -46 23 -46 17 0 -3 19 -13 43 -24 25 -11 44 -27 44 -36 0 -8
-5 -14 -11 -12 -6 3 -10 10 -9 16 2 6 -2 11 -7 11 -6 0 -10 -4 -10 -10 0 -5
-6 -9 -12 -7 -7 1 -12 -6 -10 -15 5 -28 -15 -21 -26 10 -9 24 -11 24 -11 5 -1
-12 4 -25 9 -28 6 -4 7 -11 4 -17 -5 -7 -2 -8 7 -3 10 6 11 5 4 -3 -6 -6 -26
-13 -45 -14 -19 -2 -38 -7 -41 -11 -3 -4 -16 -9 -27 -10 -12 -1 -22 -5 -22
-10 0 -5 -9 -7 -20 -4 -11 3 -23 1 -26 -5 -3 -5 -15 -8 -25 -5 -11 3 -17 2
-14 -3 3 -4 -28 -17 -68 -28 -39 -11 -81 -23 -91 -28 -12 -5 -17 -4 -13 3 3 5
0 10 -7 10 -9 0 -12 -7 -8 -15 4 -11 1 -14 -11 -9 -8 3 -17 2 -19 -4 -2 -5
-18 -10 -36 -12 -17 -1 -32 -5 -32 -9 0 -5 -9 -8 -20 -8 -17 0 -20 -5 -16 -27
2 -16 5 -28 6 -28 1 0 3 -7 5 -15 2 -8 11 -36 19 -62 8 -27 12 -48 9 -48 -3 0
0 -6 6 -14 6 -7 12 -25 13 -40 1 -14 5 -26 8 -26 5 0 32 -86 35 -110 0 -3 4
-11 9 -18 4 -7 3 -19 -5 -28 -6 -8 -9 -17 -5 -21 3 -3 6 -1 6 5 0 7 5 12 10
12 19 0 10 -21 -12 -30 -21 -9 -21 -10 -3 -9 34 2 38 0 25 -16 -11 -13 -10
-14 2 -10 15 6 17 1 21 -49 1 -13 6 -22 11 -18 5 3 7 -2 3 -10 -3 -9 -1 -20 4
-25 5 -5 10 -21 11 -36 1 -15 6 -27 11 -27 5 0 7 -6 4 -14 -3 -7 -1 -18 4 -23
10 -10 22 -59 23 -95 0 -9 3 -15 7 -13 8 6 30 -66 23 -77 -3 -4 0 -8 5 -8 6 0
11 -8 11 -17 0 -14 -2 -15 -9 -5 -6 11 -9 9 -13 -6 -4 -15 -1 -18 12 -15 14 4
20 -6 31 -49 8 -29 14 -57 14 -63 0 -5 4 -13 8 -16 5 -3 9 -22 10 -41 1 -20 6
-34 11 -31 5 3 6 0 4 -8 -3 -8 -12 -13 -22 -11 -9 2 -16 -2 -16 -7 0 -5 9 -8
20 -6 25 5 25 4 59 -109 21 -70 26 -97 17 -106 -8 -8 -8 -11 3 -8 7 2 15 -5
16 -15 2 -11 6 -21 9 -24 3 -3 0 -15 -6 -27 -11 -20 -10 -20 8 -6 10 8 16 11
12 6 -4 -5 -3 -17 2 -27 8 -13 6 -19 -8 -22 -15 -4 -15 -5 0 -6 17 -1 34 -35
30 -58 -2 -7 2 -13 8 -13 6 0 8 -5 5 -10 -4 -6 -11 -7 -17 -4 -7 5 -8 2 -4 -5
5 -7 11 -9 15 -6 11 12 40 -99 28 -113 -5 -7 -7 -15 -3 -19 3 -3 6 0 6 7 0 27
18 -5 34 -59 9 -29 13 -58 9 -64 -3 -6 -1 -7 5 -3 7 4 12 1 12 -8 0 -24 0 -23
14 -58 7 -18 11 -39 9 -45 -3 -7 0 -13 6 -13 6 0 11 -5 11 -11 0 -6 -9 -8 -22
-4 -20 5 -19 4 3 -9 27 -16 46 -46 28 -46 -5 0 -2 -11 7 -25 9 -14 13 -25 9
-25 -4 0 -1 -8 6 -17 10 -11 10 -14 1 -9 -19 11 -14 -5 6 -20 12 -9 14 -16 6
-24 -9 -9 -17 -2 -34 25 -12 20 -24 34 -27 31 -3 -2 8 -21 23 -41 33 -44 41
-75 18 -75 -9 0 -12 5 -8 12 4 7 3 8 -5 4 -17 -11 -3 -26 23 -24 19 2 35 28
16 28 -4 0 -7 7 -7 15 0 8 4 15 9 15 8 0 9 -7 11 -47 1 -10 5 -21 10 -24 5 -3
2 -9 -7 -12 -9 -4 -16 -2 -16 3 0 6 -5 10 -12 10 -6 0 -3 -9 7 -20 20 -22 9
-26 -17 -6 -10 7 -14 17 -10 21 4 5 1 5 -6 1 -7 -4 -9 -12 -6 -18 5 -8 1 -9
-10 -5 -10 4 -15 3 -11 -4 4 -5 15 -7 26 -4 14 5 17 2 13 -8 -6 -16 21 -42 35
-33 5 4 12 2 16 -4 6 -10 -2 -13 -45 -12 l-25 1 25 -8 c14 -5 21 -9 16 -10 -4
-1 2 -10 15 -21 25 -20 20 -26 -10 -11 -13 7 -18 6 -18 -4 0 -7 7 -11 15 -7
12 4 12 1 -1 -19 -14 -22 -14 -26 1 -44 17 -20 53 -27 68 -12 4 4 0 7 -8 7
-11 0 -15 9 -14 29 0 17 5 27 11 23 5 -3 4 1 -3 10 -10 12 -10 18 2 27 12 10
14 9 11 -6 -1 -10 4 -29 12 -43 10 -17 11 -21 2 -12 -20 19 -31 14 -17 -7 7
-11 16 -18 20 -15 4 3 5 -2 2 -10 -6 -15 -17 -20 -36 -17 -5 0 -8 -3 -8 -7 0
-18 13 -20 35 -6 22 14 23 14 18 -6 -3 -12 -11 -19 -19 -16 -7 3 -16 1 -19 -4
-6 -10 7 -14 35 -11 12 2 13 0 1 -7 -7 -6 -10 -15 -7 -21 4 -6 2 -19 -4 -28
-10 -16 -10 -16 -5 3 3 13 1 21 -8 21 -8 0 -14 -11 -14 -28 0 -20 4 -26 16
-22 14 4 14 3 1 -5 -8 -6 -18 -8 -24 -5 -5 4 -7 -1 -3 -10 4 -10 10 -24 13
-32 7 -18 -11 -20 -22 -3 -5 7 -3 8 6 3 9 -5 11 -4 6 4 -4 6 -12 8 -18 5 -8
-5 -9 -1 -5 10 4 10 3 15 -3 11 -6 -3 -10 -2 -10 3 0 6 7 12 15 16 9 3 12 12
9 23 -5 15 -4 16 6 3 10 -13 11 -13 7 0 -2 8 -9 16 -15 16 -25 3 -27 5 -13 13
8 5 23 8 33 6 10 -2 18 1 18 7 0 5 -7 7 -16 4 -10 -4 -13 -2 -8 6 4 7 3 8 -4
4 -7 -4 -10 1 -7 14 4 21 -16 41 -23 22 -2 -7 -7 -10 -11 -8 -4 3 -8 -1 -8 -9
0 -8 9 -18 20 -21 20 -6 20 -7 -2 -19 -20 -10 -21 -13 -7 -18 9 -4 16 -11 16
-17 0 -6 -12 -3 -27 6 -26 15 -27 15 -8 0 20 -17 30 -72 14 -82 -5 -3 -14 -15
-19 -27 -8 -16 -5 -14 10 6 20 25 40 28 40 6 0 -6 -4 -8 -9 -4 -6 3 -15 -4
-21 -15 -6 -11 -18 -20 -28 -21 -12 0 -10 -3 7 -10 18 -7 21 -12 12 -22 -8
-10 -7 -17 2 -27 10 -10 9 -12 -5 -7 -10 4 -18 2 -18 -4 0 -6 9 -9 20 -6 28 7
34 -8 16 -44 -9 -17 -13 -35 -11 -39 3 -5 0 -21 -7 -37 -11 -27 -14 -36 -17
-58 -1 -5 -9 -1 -19 10 -9 11 -16 18 -15 16 2 -2 -3 -11 -10 -19 -10 -13 -9
-14 1 -8 20 12 43 -13 32 -34 -5 -9 -6 -20 -3 -24 3 -3 -2 -6 -13 -7 -10 0
-13 -3 -7 -6 10 -3 10 -10 2 -24 -5 -11 -7 -23 -4 -28 3 -5 -2 -17 -11 -25 -8
-9 -11 -16 -6 -16 10 0 -17 -93 -29 -98 -4 -2 -5 -12 -2 -22 3 -11 1 -20 -3
-20 -5 0 -10 -14 -11 -31 -1 -17 -8 -38 -14 -45 -7 -8 -9 -17 -6 -21 3 -3 0
-20 -8 -38 -7 -19 -10 -37 -7 -41 4 -4 -2 -4 -12 0 -15 5 -17 4 -8 -7 7 -8 9
-17 6 -20 -4 -3 -8 -20 -10 -37 -5 -42 -13 -53 -35 -47 -11 3 -16 1 -13 -4 3
-6 0 -18 -7 -27 -10 -13 -8 -12 9 2 12 11 25 16 30 11 4 -4 2 -10 -5 -12 -7
-2 -10 -10 -7 -18 3 -7 0 -16 -5 -20 -6 -3 -8 -11 -5 -17 5 -8 1 -9 -11 -4
-15 5 -16 4 -6 -8 9 -11 7 -31 -10 -93 -13 -43 -26 -80 -29 -83 -4 -3 -6 -16
-5 -28 1 -13 -3 -29 -10 -35 -16 -16 -8 -37 14 -37 10 0 21 -3 25 -7 3 -4 12
-8 19 -9 7 -2 23 -6 37 -9 14 -4 31 -7 38 -7 6 -1 12 -5 12 -10 0 -5 4 -7 8
-4 5 3 38 -3 73 -14 35 -11 85 -25 112 -32 30 -8 47 -18 47 -28 0 -13 2 -13 9
-1 7 12 13 12 24 3 7 -7 17 -9 20 -5 4 3 13 0 21 -7 9 -6 30 -14 48 -16 54 -7
57 -7 56 -13 -2 -19 4 -24 12 -11 11 17 10 21 14 -57 1 -27 -1 -40 -8 -36 -6
3 -8 3 -4 -2 4 -4 3 -16 -2 -25 -7 -13 -6 -20 4 -23 10 -4 12 0 9 14 -3 10 -1
19 4 19 6 0 9 -19 9 -42 -1 -24 1 -60 5 -81 6 -35 5 -37 -15 -31 -21 6 -21 6
-1 -9 15 -12 20 -29 22 -83 1 -38 3 -69 4 -69 1 0 2 -21 4 -47 1 -26 -1 -46
-5 -43 -3 2 -7 -2 -7 -10 0 -8 4 -12 9 -9 4 3 9 -5 9 -18 2 -36 7 -114 14
-223 4 -55 7 -121 8 -147 0 -26 4 -43 7 -38 4 6 53 13 111 16 57 3 123 6 147
8 31 2 42 0 38 -10 -2 -6 2 -20 10 -31 14 -17 15 -17 6 2 -5 11 -7 26 -5 33 5
14 43 16 43 2 0 -5 5 -10 11 -10 5 0 7 5 4 10 -4 6 7 10 24 10 17 0 31 -4 31
-9 0 -5 -8 -8 -17 -7 -10 0 -17 -5 -15 -13 1 -7 -2 -19 -7 -25 -6 -7 -9 -23
-6 -36 7 -36 14 -36 12 0 -2 25 2 34 16 36 10 1 24 10 31 19 11 15 14 15 36
-4 27 -22 21 -28 -11 -11 -13 8 -19 7 -19 0 0 -6 -10 -15 -22 -20 -17 -6 -18
-9 -6 -9 9 -1 20 4 23 9 3 6 13 10 21 10 10 0 9 -5 -6 -20 -11 -11 -20 -26
-20 -32 0 -7 6 -4 12 7 16 30 18 31 29 15 9 -12 10 -11 5 4 -5 13 -2 17 8 13
8 -3 20 1 26 9 11 13 7 18 -12 15 -4 0 -5 8 -3 18 3 16 -1 19 -23 15 -21 -3
-23 -2 -12 6 8 5 10 10 5 10 -6 0 -16 -5 -23 -12 -9 -9 -12 -9 -12 3 0 12 10
16 43 15 25 -1 43 -7 43 -14 1 -7 2 -13 4 -14 2 -3 8 -26 13 -53 2 -8 6 -18
10 -21 4 -4 2 -13 -4 -21 -6 -7 -8 -13 -3 -13 5 0 2 -5 -6 -11 -13 -9 -13 -10
0 -6 8 2 14 11 12 18 -3 11 -1 11 9 2 10 -10 9 -15 -1 -28 -11 -13 -10 -14 4
-9 9 3 16 1 16 -5 0 -6 -6 -11 -12 -11 -7 0 -5 -5 5 -11 9 -6 15 -14 12 -19
-3 -5 -1 -11 5 -15 5 -3 10 -11 10 -16 0 -6 -4 -7 -10 -4 -5 3 -10 1 -10 -4 0
-6 7 -11 15 -11 8 0 15 -7 15 -15 0 -8 6 -34 14 -57 8 -24 16 -52 18 -63 5
-34 23 -46 53 -35 19 7 24 7 19 -1 -3 -6 5 -4 19 5 13 9 29 16 33 15 5 -1 22
3 37 9 16 7 33 10 38 6 5 -3 9 0 9 7 0 6 8 9 20 6 11 -3 18 -2 15 3 -3 4 5 10
18 14 30 8 39 7 33 -2 -2 -4 4 -8 14 -8 15 0 17 3 7 15 -10 12 -9 14 6 8 9 -3
17 -3 17 1 0 7 123 47 145 47 6 0 13 4 17 10 4 5 10 6 14 2 4 -4 0 -15 -9 -25
-14 -15 -14 -19 -3 -19 8 0 15 3 14 6 -1 17 16 50 23 45 5 -3 6 -10 3 -16 -4
-7 -2 -8 5 -4 6 4 9 11 6 16 -3 4 2 11 11 14 23 9 23 8 18 -21 -3 -15 -2 -25
1 -21 6 5 11 24 14 49 1 6 11 8 58 12 17 1 29 5 27 8 -3 6 90 40 126 45 8 2
20 -2 27 -8 11 -8 12 -7 7 8 -4 10 -4 16 1 12 4 -4 15 -3 22 4 11 9 17 9 24
-3 7 -11 9 -11 9 4 0 25 18 21 23 -6 4 -18 5 -17 6 7 1 25 4 28 30 24 17 -2
28 -1 26 3 -3 4 17 14 44 23 60 19 75 20 42 2 -20 -11 -21 -14 -7 -19 10 -4
15 -3 13 1 -4 7 27 42 38 42 7 1 37 10 63 21 14 5 22 5 22 -2 0 -6 7 -3 16 5
8 9 18 16 22 17 4 0 16 3 27 5 41 10 60 9 57 -3 -1 -7 3 -13 9 -13 6 0 8 9 3
23 -3 12 -3 19 1 15 4 -4 16 -3 26 2 14 8 21 5 33 -12 8 -12 12 -26 9 -31 -3
-6 -1 -7 6 -3 9 6 9 13 -3 31 -8 12 -12 25 -9 28 7 7 32 -16 27 -25 -2 -3 4
-5 13 -4 18 3 19 6 10 29 -4 9 -6 9 -6 -1 -1 -16 -21 -6 -21 10 0 6 3 8 6 5 4
-3 15 -2 25 3 9 6 25 7 35 3 16 -6 15 -7 -2 -20 -18 -14 -18 -14 1 -11 12 2
19 -2 17 -9 -1 -7 2 -13 8 -13 13 0 13 17 0 25 -8 5 -7 12 2 23 8 10 9 13 1 9
-6 -4 -14 -3 -17 2 -4 5 2 8 11 7 10 -2 18 -10 18 -19 0 -24 12 -30 32 -17 15
9 15 10 -7 4 -22 -6 -23 -5 -12 9 10 12 10 16 0 20 -7 2 -10 7 -7 11 8 9 40
-4 34 -14 -3 -4 3 -11 12 -14 18 -7 36 12 26 27 -3 5 0 7 8 5 8 -3 13 -11 11
-17 -1 -7 2 -10 7 -7 5 4 11 3 14 -1 2 -5 2 -2 0 5 -2 9 3 11 18 7 11 -4 27
-1 35 6 8 6 18 9 21 5 4 -4 1 -11 -7 -16 -8 -5 -11 -12 -7 -16 3 -4 16 4 27
17 20 24 20 24 35 5 8 -11 15 -14 15 -7 0 7 4 10 9 6 5 -3 12 -1 16 5 4 6 10
8 15 5 5 -3 15 1 23 9 13 13 17 13 33 0 17 -14 17 -15 2 -10 -10 3 -18 2 -18
-3 0 -5 8 -11 18 -13 12 -4 18 1 19 13 1 11 -3 19 -8 19 -6 0 -5 9 2 23 6 12
8 19 4 15 -5 -4 -15 -2 -23 5 -13 10 -15 9 -8 -3 4 -8 -1 -5 -12 7 -12 13 -24
18 -32 13 -9 -6 -6 -12 14 -22 l27 -14 -21 -19 c-21 -19 -29 -8 -8 13 9 9 9
12 0 12 -7 0 -12 -5 -12 -12 0 -6 -6 -3 -14 7 -11 16 -17 17 -29 7 -11 -10
-17 -9 -26 2 -14 16 -4 25 23 20 10 -1 29 4 42 13 13 8 24 12 24 9 0 -4 9 -2
19 4 16 8 21 6 26 -9 6 -20 35 -23 47 -6 4 6 5 19 1 30 -5 17 -2 16 15 -5 17
-21 22 -22 36 -11 10 9 16 10 16 2 0 -6 -4 -11 -10 -11 -5 0 -10 -4 -10 -8 0
-5 7 -9 15 -9 17 0 28 24 18 39 -3 6 -1 8 5 4 6 -3 12 -1 15 6 2 7 2 2 0 -11
-4 -22 -3 -23 13 -10 10 8 15 9 11 3 -4 -7 3 -11 20 -11 l27 0 -23 18 c-13 11
-19 19 -14 19 10 0 73 -56 73 -65 0 -3 -4 -3 -10 0 -5 3 -10 1 -10 -6 0 -7
-10 -3 -24 10 -17 16 -26 19 -31 11 -6 -9 -10 -9 -17 1 -7 11 -8 10 -4 -4 3
-10 2 -15 -3 -12 -5 3 -12 1 -16 -5 -4 -6 -11 -7 -17 -4 -7 5 -8 2 -3 -7 7
-11 6 -12 -7 -2 -8 7 -19 9 -23 5 -5 -4 -6 -2 -2 4 3 6 -4 10 -18 10 -13 0
-21 -4 -18 -10 4 -5 1 -6 -7 -1 -9 5 -11 4 -6 -3 5 -8 2 -10 -8 -6 -18 7 -20
-4 -6 -26 7 -11 10 -11 10 -2 0 7 5 10 10 7 6 -4 8 -10 5 -15 -7 -11 19 -7 36
6 23 17 53 10 65 -14 l11 -23 6 22 c5 19 8 20 21 10 9 -8 13 -18 9 -24 -3 -6
-1 -7 5 -3 15 9 -7 46 -27 46 -17 0 -6 13 14 16 8 1 17 -6 20 -16 3 -9 16 -26
28 -36 l22 -19 -19 23 c-11 12 -17 24 -14 27 3 3 11 -1 18 -10 7 -8 19 -15 27
-15 8 0 11 -5 7 -12 -4 -7 -3 -8 5 -4 14 9 5 26 -15 26 -17 0 -19 16 -3 26 8
4 7 9 -2 16 -11 8 -11 9 1 5 8 -2 14 -12 13 -21 0 -10 1 -15 4 -12 3 2 15 -5
27 -18 11 -12 15 -15 9 -6 -20 26 -15 35 7 15 15 -14 19 -15 15 -4 -4 10 1 15
16 16 18 2 19 0 7 -15 -12 -16 -11 -16 6 -2 18 14 19 13 13 -3 -4 -9 -2 -17 4
-17 6 0 9 9 6 20 -3 11 -1 23 4 26 5 3 7 10 3 15 -4 6 -11 6 -20 -2 -10 -8
-18 -9 -27 0 -8 6 -16 9 -18 6 -3 -2 -5 5 -6 15 -2 21 12 27 22 10 4 -6 11 -7
17 -4 7 5 8 2 3 -6 -5 -9 -2 -10 14 -5 11 3 21 2 21 -3 0 -5 10 -8 23 -8 17 1
21 -4 20 -21 -2 -15 3 -23 13 -23 11 0 13 6 9 19 -4 13 -1 18 7 16 75 -16 79
-18 66 -27 -9 -7 -6 -8 10 -5 13 3 37 1 55 -4 18 -6 39 -12 48 -14 49 -11 99
-29 99 -37 0 -4 5 -8 11 -8 5 0 7 5 3 11 -3 6 8 3 25 -5 17 -9 34 -17 38 -19
5 -1 7 -6 5 -11 -2 -5 5 -3 14 5 16 12 17 12 11 -3 -3 -10 -2 -18 3 -18 6 0
10 7 10 16 0 10 4 12 13 7 6 -4 15 -8 20 -9 4 -1 10 -2 13 -3 4 0 1 -8 -6 -16
-11 -13 -10 -14 4 -9 9 3 16 11 17 18 0 6 4 2 9 -9 5 -11 9 -14 9 -7 1 6 6 12
12 12 5 0 8 -3 6 -7 -3 -5 9 -9 26 -9 17 -1 33 -6 35 -13 2 -6 8 -11 13 -11 6
0 7 5 4 10 -4 6 4 5 19 -1 14 -7 23 -15 21 -19 -2 -4 2 -7 10 -7 8 0 12 4 9 8
-6 10 56 -10 74 -24 6 -5 12 -6 12 -2 0 4 8 1 17 -6 9 -8 14 -9 10 -2 -5 7 0
9 13 6 11 -3 20 -9 20 -13 0 -4 14 -7 32 -8 17 0 34 -4 37 -9 6 -9 21 -13 61
-18 14 -2 38 -8 53 -14 15 -6 42 -13 60 -16 17 -4 35 -11 39 -18 6 -9 8 -8 8
3 0 13 2 13 9 0 6 -8 8 -17 5 -21 -2 -4 0 -11 6 -14 6 -4 9 -1 8 6 -2 7 5 15
15 17 11 2 17 -3 17 -15 0 -10 4 -14 8 -8 9 13 42 16 42 4 0 -5 3 -8 8 -7 13
5 142 -36 142 -45 0 -4 4 -6 8 -3 5 3 33 -2 63 -10 30 -9 60 -16 67 -16 6 -1
12 -5 12 -10 0 -4 6 -7 13 -6 7 2 12 -6 11 -18 -1 -11 5 -21 12 -21 10 0 11 4
3 13 -6 7 -6 15 -1 18 11 7 54 -1 61 -11 3 -5 15 -9 26 -10 11 -1 31 -5 45 -8
24 -6 27 -3 39 44 7 28 17 49 22 45 5 -3 6 2 3 10 -3 8 2 41 12 73 10 32 18
61 20 66 1 4 2 8 4 10 1 1 3 9 5 17 11 56 27 100 35 95 5 -3 12 0 16 6 4 7 3
9 -4 5 -6 -3 -13 -2 -17 4 -3 5 1 10 9 10 8 0 18 4 21 10 3 5 0 7 -8 4 -8 -3
-14 2 -14 11 0 9 6 14 12 11 6 -2 12 2 12 10 0 7 -5 11 -10 7 -5 -3 -4 4 2 14
6 11 7 23 4 27 -3 3 -1 6 6 6 7 0 10 4 7 9 -3 5 4 35 15 67 12 33 22 67 22 77
2 20 20 24 26 6 2 -6 -1 -9 -6 -6 -5 3 -9 -2 -9 -12 0 -13 8 -17 30 -16 17 1
32 7 34 14 3 9 7 9 18 0 8 -7 16 -10 19 -8 2 3 -4 10 -15 17 -15 9 -22 9 -34
-3 -19 -19 -21 -19 -23 5 -1 11 2 18 6 16 4 -3 13 -1 21 4 10 6 21 4 32 -7 9
-8 23 -13 30 -10 9 4 8 6 -4 6 -11 1 -15 7 -11 21 6 23 23 27 23 5 0 -8 5 -15
10 -15 7 0 7 7 0 20 -8 15 -17 19 -32 14 -15 -4 -18 -3 -13 6 6 9 4 11 -4 5
-9 -5 -10 -10 -2 -18 16 -16 14 -32 -2 -18 -8 6 -17 8 -21 4 -4 -4 -4 1 0 11
5 14 4 17 -4 12 -7 -4 -12 -15 -12 -24 0 -13 -2 -14 -9 -3 -7 11 -9 11 -14 0
-4 -10 -6 -8 -6 4 -1 10 -5 15 -11 12 -6 -3 -7 1 -3 10 4 12 8 13 13 5 6 -9
11 -7 19 6 6 11 11 13 11 6 0 -8 5 -10 13 -5 23 14 105 13 111 -3 7 -17 -6
-18 -23 -2 -10 11 -11 9 -5 -5 9 -23 39 -17 39 8 0 16 8 20 43 21 23 2 42 -2
42 -7 0 -6 -5 -7 -12 -3 -7 4 -8 3 -4 -5 4 -6 11 -9 16 -6 4 3 11 -1 14 -7 3
-7 3 -2 0 11 -4 16 -3 21 5 17 6 -4 11 -1 11 6 0 9 3 9 10 -2 9 -13 10 -13 10
0 0 13 2 13 9 0 6 -8 8 -17 5 -21 -2 -4 1 -11 8 -15 7 -4 10 -4 6 1 -4 4 0 14
10 22 16 12 15 13 -3 7 -16 -6 -18 -4 -8 6 10 11 15 11 29 -1 14 -11 16 -11
10 0 -7 10 1 12 38 10 25 -2 46 0 46 5 0 6 7 1 15 -10 10 -13 13 -14 10 -3 -5
13 2 16 40 15 25 -1 45 3 45 8 0 5 6 4 13 -3 10 -8 17 -7 25 1 9 9 12 9 12 -2
0 -12 2 -12 9 -2 4 8 12 14 17 15 5 1 9 18 10 38 0 19 4 42 9 49 5 8 4 11 -1
7 -5 -3 -10 3 -10 14 0 13 5 18 16 14 13 -4 13 -3 -1 7 -19 15 -31 56 -18 63
4 3 6 13 3 23 -5 14 -3 14 10 -2 9 -11 16 -15 16 -8 0 6 -9 17 -21 25 -15 11
-17 16 -7 20 10 4 10 6 -1 6 -11 1 -11 4 0 18 8 9 9 14 4 11 -7 -4 -12 7 -13
28 -2 22 2 34 10 35 7 0 4 4 -7 9 -11 5 -14 9 -7 9 7 1 10 6 6 12 -11 18 -14
79 -3 79 6 0 7 -5 3 -12 -5 -7 -3 -8 6 -3 10 6 10 11 -3 20 -22 16 -22 26 1
19 11 -4 8 1 -8 15 -20 16 -21 21 -8 21 9 0 20 5 24 12 5 7 2 9 -8 5 -29 -11
-28 6 2 28 23 17 27 24 17 35 -10 10 -9 12 6 7 15 -6 19 -1 16 19 0 4 5 10 13
15 15 9 22 59 8 59 -5 0 -7 -12 -4 -26 3 -17 1 -23 -6 -19 -6 4 -9 13 -7 19 3
7 -1 13 -8 13 -8 0 -11 -7 -8 -16 4 -11 1 -11 -9 3 -13 16 -15 16 -15 2 0 -14
10 -20 29 -17 4 0 6 -8 5 -19 -1 -11 -4 -20 -8 -20 -4 0 -15 -3 -23 -6 -12 -5
-15 -2 -10 10 3 9 11 13 18 9 6 -4 5 1 -3 10 -15 19 -26 23 -15 5 4 -7 3 -8
-4 -4 -8 5 -10 2 -6 -8 3 -9 2 -16 -4 -16 -6 0 -9 8 -7 18 1 9 -2 24 -8 32 -6
8 -7 12 -2 7 4 -4 16 -1 24 7 9 8 27 17 41 19 45 9 55 12 61 20 3 4 20 9 37
10 18 1 32 6 32 10 0 5 4 6 9 2 5 -3 12 -1 16 5 3 5 12 10 18 10 7 0 6 -4 -3
-10 -8 -5 -10 -10 -4 -10 5 0 16 6 22 13 7 6 16 12 20 13 4 0 20 6 36 13 16 6
35 10 43 7 7 -3 13 -2 13 2 0 4 20 14 45 21 25 7 48 17 50 22 3 4 -3 36 -14
70 -12 34 -18 66 -14 73 13 20 11 35 -3 29 -19 -7 -31 27 -13 38 12 7 11 9 -2
9 -9 0 -20 14 -26 35 -8 26 -8 33 0 28 7 -3 3 3 -7 15 -11 12 -16 22 -11 22 4
0 2 6 -4 14 -6 8 -11 18 -9 22 2 10 -29 118 -44 150 -6 12 -11 36 -12 53 0 17
-4 31 -9 31 -4 0 -5 4 -2 10 3 6 2 10 -3 10 -9 0 -28 65 -24 83 1 4 -2 7 -6 7
-9 0 -11 8 -14 60 -1 16 -5 27 -9 25 -3 -3 -9 4 -12 16 -4 16 -3 18 9 8 22
-18 17 -2 -7 19 -11 11 -21 33 -21 51 -1 17 -6 31 -11 31 -6 0 -8 3 -5 6 4 3
0 21 -8 39 -18 43 -17 46 1 39 8 -4 12 -11 8 -17 -4 -6 -1 -7 7 -2 10 6 9 11
-5 22 -11 7 -23 13 -29 13 -5 0 -1 7 10 15 18 15 18 15 0 8 -13 -4 -17 -3 -13
4 4 6 3 13 -3 15 -5 1 -11 14 -12 28 -2 14 -6 27 -10 30 -4 3 -9 15 -11 25 -1
11 -5 25 -9 30 -3 6 4 10 18 10 28 0 32 -10 7 -19 -15 -6 -14 -9 5 -29 24 -24
49 -13 31 13 -9 13 -10 12 -5 -2 6 -21 -5 -23 -22 -6 -9 9 -7 14 5 23 20 15 9
37 -14 28 -11 -4 -14 -3 -9 6 4 6 2 19 -6 28 -11 15 -11 16 5 10 10 -4 21 -7
23 -7 3 0 2 -5 -2 -12 -4 -7 -3 -8 4 -4 17 11 15 14 -20 32 -29 15 -30 18 -14
29 14 11 15 17 7 34 -15 28 -14 36 4 21 19 -16 19 -3 0 16 -8 9 -15 21 -15 27
0 7 7 3 15 -7 23 -30 18 -8 -6 25 -20 28 -14 40 8 18 8 -8 13 -8 18 0 3 6 3
11 -2 10 -20 -3 -27 2 -14 10 12 7 12 13 3 24 -7 7 -9 17 -5 20 3 4 13 -1 21
-11 9 -11 9 -8 -2 11 -12 19 -13 27 -4 27 6 0 3 6 -8 14 -10 8 -15 18 -11 22
4 5 12 2 17 -6 5 -8 11 -12 14 -9 3 3 -4 16 -15 28 -19 21 -22 21 -39 6 -15
-14 -18 -14 -23 -1 -4 9 -2 18 4 21 5 4 7 10 4 15 -3 5 -1 11 5 15 6 4 8 11 5
16 -11 16 12 10 26 -8 12 -14 12 -16 -2 -11 -10 4 -16 1 -16 -8 0 -8 6 -13 13
-10 7 3 15 0 17 -7 3 -7 5 -1 4 13 -1 14 -6 28 -12 33 -6 5 -2 14 13 26 12 11
22 23 22 27 0 4 -9 -1 -19 -10 -18 -17 -20 -16 -26 4 -4 12 -2 27 4 33 7 7 9
4 6 -13 -2 -12 -1 -19 3 -16 4 4 8 12 8 17 3 22 5 23 15 9 9 -13 10 -13 6 0
-2 8 -9 16 -15 16 -7 1 -15 2 -19 3 -4 0 3 8 15 17 18 12 20 19 12 35 -6 11
-8 25 -4 31 4 7 9 23 10 37 2 13 9 28 16 32 7 5 9 9 4 9 -5 0 -2 8 5 17 10 11
10 14 2 9 -7 -4 -13 -2 -13 3 0 6 5 11 11 11 5 0 9 8 8 18 -3 34 1 42 24 43
16 1 18 2 5 6 -20 5 -23 18 -8 28 6 4 7 11 4 17 -5 8 -1 9 12 5 18 -7 18 -7 0
8 -11 8 -15 15 -10 15 10 0 14 13 15 53 0 9 5 17 10 17 6 0 8 -4 4 -9 -3 -5
-2 -12 2 -14 5 -3 9 8 10 25 0 22 -2 27 -9 17 -6 -10 -7 -6 -2 11 4 14 9 27
13 30 3 3 6 10 7 15 1 17 15 69 23 85 4 8 7 23 5 33 -1 9 1 17 6 17 4 0 8 12
8 26 0 28 20 47 37 36 6 -4 3 0 -7 10 -16 15 -16 19 -3 51 8 19 12 37 9 40 -3
2 6 7 19 11 14 3 28 13 31 23 6 16 6 16 -12 0 -10 -9 -21 -17 -25 -17 -9 0 0
40 13 54 5 7 7 16 3 19 -3 4 0 13 7 22 7 8 9 15 5 15 -4 0 -2 7 5 15 7 8 9 15
5 15 -4 0 0 12 10 26 9 15 12 23 6 20 -6 -4 -11 -2 -11 3 0 6 5 11 11 11 6 0
8 7 5 16 -5 12 -2 15 10 10 14 -6 15 -4 4 10 -8 9 -10 18 -4 22 5 4 10 21 12
37 2 17 8 32 13 33 5 2 7 8 4 13 -3 4 4 41 17 81 12 40 22 77 23 81 0 11 28
27 37 21 4 -3 8 0 8 6 0 7 -8 9 -21 5 -18 -6 -19 -4 -11 12 6 10 12 23 14 28
1 6 6 9 11 7 4 -1 7 2 7 8 0 5 -6 10 -12 10 -8 0 -9 3 -3 8 6 4 11 20 12 36 1
16 6 32 10 35 4 3 8 12 9 19 1 6 2 21 3 32 0 12 8 20 19 20 14 0 15 2 2 10 -9
6 -11 13 -5 18 6 4 10 16 9 27 0 11 6 36 14 55 7 19 15 47 17 63 2 15 8 33 12
40 8 12 13 33 15 55 1 6 5 12 9 12 4 0 5 9 2 20 -3 12 0 20 6 20 7 0 10 4 7 9
-3 5 0 24 8 42 7 19 11 41 9 49 -4 12 -3 13 5 1 7 -10 10 -4 10 22 0 20 4 42
8 49 5 7 10 24 12 38 2 13 7 27 11 30 5 3 7 13 5 23 -1 9 1 17 4 17 4 0 8 13
9 30 1 16 -1 29 -5 28 -4 -1 -14 1 -22 4 -13 5 -35 11 -118 34 -16 4 -22 11
-18 22 5 13 2 12 -9 -2 -8 -11 -15 -14 -15 -7 0 6 -6 11 -14 9 -8 -2 -22 6
-30 17 -15 18 -15 18 -10 1 6 -16 4 -17 -14 -7 -12 7 -22 8 -22 4 0 -4 -9 3
-20 17 -11 14 -18 18 -15 9 6 -15 2 -15 -34 -6 -23 6 -41 14 -41 18 0 4 -8 5
-19 2 -10 -3 -22 0 -25 6 -4 6 -18 11 -31 11 -12 0 -25 7 -29 15 -3 8 -11 15
-18 15 -9 0 -8 -3 2 -10 17 -11 1 -13 -24 -4 -9 3 -13 11 -9 18 4 6 -2 4 -12
-4 -17 -14 -18 -13 -12 10 5 23 5 23 -8 7 -12 -17 -16 -17 -48 -3 -20 8 -38
12 -41 8 -3 -3 -6 2 -6 11 0 9 -4 19 -10 22 -6 3 -7 -1 -4 -9 3 -9 1 -16 -5
-16 -6 0 -11 6 -11 14 0 8 -4 18 -10 21 -5 3 -7 0 -4 -9 6 -17 3 -16 -78 4
-27 7 -48 16 -48 21 0 4 -8 8 -17 8 -39 1 -53 5 -53 14 0 5 -6 7 -12 4 -7 -2
-24 0 -38 5 -14 6 -33 11 -44 14 -24 4 -34 14 -15 14 12 0 11 2 -1 10 -10 6
-15 26 -16 59 0 28 -3 54 -7 57 -10 11 13 34 27 28 8 -3 16 2 20 11 4 11 2 14
-7 8 -6 -4 -20 -9 -30 -10 -15 -3 -16 0 -6 18 8 15 8 19 0 15 -7 -5 -11 3 -11
19 0 14 4 24 9 20 5 -3 13 -1 16 5 4 6 1 9 -5 8 -7 -2 -14 8 -16 22 -12 76
-12 80 -1 73 7 -4 6 1 -2 10 -7 9 -11 17 -7 17 3 0 1 11 -4 25 -7 17 -6 25 1
25 8 0 8 4 0 13 -8 10 -7 17 1 25 7 7 8 12 2 12 -11 0 -17 47 -8 61 3 6 13 5
22 -3 15 -12 16 -11 3 4 -7 10 -17 15 -22 12 -5 -3 -10 7 -10 23 -4 90 -4 88
-29 91 -14 2 -31 9 -39 15 -11 9 -13 9 -8 0 4 -6 3 -14 -3 -18 -5 -3 -10 0
-10 7 0 8 -3 9 -8 3 -10 -15 -62 -16 -62 -2 0 8 -3 8 -9 -1 -5 -8 -23 -12 -47
-10 -32 2 -39 7 -37 23 1 18 1 19 -11 3 -10 -14 -15 -15 -26 -5 -12 10 -12 9
-1 -5 7 -10 17 -15 22 -12 5 3 9 1 9 -3 0 -5 -18 -9 -40 -10 -27 -1 -40 2 -40
11 0 8 -8 20 -17 27 -15 11 -16 11 -5 -1 14 -17 16 -44 2 -35 -5 3 -10 0 -10
-7 0 -10 -2 -10 -9 1 -5 8 -14 10 -22 5 -8 -4 -31 -10 -52 -11 -29 -3 -36 0
-31 9 6 10 5 10 -7 2 -8 -7 -34 -12 -59 -13 -25 -1 -64 -3 -88 -5 -42 -3 -53
4 -60 34 -8 37 -6 54 6 58 11 3 12 0 3 -16 -9 -17 -8 -19 9 -15 11 3 20 0 20
-6 0 -6 -4 -10 -9 -9 -5 2 -8 -1 -7 -7 0 -5 13 -10 28 -9 15 0 25 -3 22 -7 -2
-4 -1 -10 4 -13 4 -2 9 4 9 15 1 10 -3 19 -8 19 -6 0 -7 6 -3 13 5 8 2 8 -9
-2 -12 -9 -17 -10 -17 -2 0 6 7 14 15 17 8 4 15 10 15 16 0 5 -3 7 -7 5 -11
-7 -33 19 -25 29 4 4 1 4 -6 0 -11 -6 -10 -12 3 -26 9 -10 12 -21 7 -24 -6 -3
-12 1 -15 8 -3 8 -16 20 -28 26 -15 8 -19 9 -15 1 4 -6 2 -11 -3 -11 -11 0
-15 21 -12 49 2 7 -2 10 -7 7 -6 -4 -9 4 -8 19 2 13 0 22 -4 20 -9 -5 -31 65
-24 77 3 4 0 8 -5 8 -6 0 -11 7 -11 15 0 8 5 15 10 15 6 0 0 10 -12 22 -15 15
-18 23 -9 26 9 3 9 7 -2 16 -15 12 -49 115 -51 154 0 12 -5 22 -10 22 -5 0 -2
8 5 17 10 11 10 14 2 9 -7 -4 -13 -2 -13 3 0 18 -3 25 -14 36 -13 12 -68 16
-61 5z m-1601 -421 c-3 -5 0 -17 7 -25 13 -15 23 -52 12 -40 -3 3 -15 0 -26
-6 -21 -11 -21 -11 -4 16 15 22 15 27 3 32 -8 3 -12 13 -9 25 3 10 9 16 14 13
5 -3 7 -10 3 -15z m-124 -10 c0 -8 -56 -6 -65 2 -3 4 10 6 29 6 20 -1 36 -4
36 -8z m173 -29 c-3 -12 -8 -19 -11 -16 -5 6 5 36 12 36 2 0 2 -9 -1 -20z
m-1982 -303 c-6 -8 -8 -17 -4 -20 3 -4 1 -7 -6 -7 -7 0 -9 -5 -5 -12 5 -7 3
-8 -6 -3 -10 6 -11 2 -7 -17 5 -17 2 -30 -8 -38 -12 -10 -15 -10 -15 1 0 12
-2 12 -9 1 -7 -11 -9 -10 -14 3 -4 9 -3 13 2 10 17 -10 21 12 6 25 -14 11 -19
7 -16 -12 0 -4 -6 -5 -14 -2 -18 7 -20 -12 -3 -22 7 -5 8 -3 3 6 -5 9 -4 11 3
6 16 -10 15 -26 -2 -26 -23 0 -27 30 -8 55 13 17 22 21 29 14 15 -15 50 5 58
31 3 11 11 20 17 20 7 0 7 -4 -1 -13z m-31 -17 c0 -5 -4 -10 -10 -10 -5 0 -10
5 -10 10 0 6 5 10 10 10 6 0 10 -4 10 -10z m-420 -116 c0 -2 -7 -4 -15 -4 -8
0 -15 4 -15 10 0 5 7 7 15 4 8 -4 15 -8 15 -10z m5385 -2824 c-3 -5 -11 -10
-16 -10 -6 0 -7 5 -4 10 3 6 11 10 16 10 6 0 7 -4 4 -10z m-30 -100 c3 -5 1
-10 -4 -10 -6 0 -11 5 -11 10 0 6 2 10 4 10 3 0 8 -4 11 -10z m-5927 -57 c6
-16 9 -39 8 -53 -2 -14 -4 -29 -5 -35 0 -5 -9 -2 -18 8 -16 16 -16 18 1 30 16
12 17 15 5 23 -8 5 -20 9 -28 9 -8 0 -17 7 -19 15 -5 13 -3 13 11 1 14 -11 17
-11 18 0 1 8 1 17 0 22 -3 19 18 4 27 -20z m5928 -49 c-4 -9 -1 -23 5 -30 8
-9 8 -14 1 -14 -6 0 -14 5 -17 10 -3 6 -12 10 -18 10 -7 0 -6 -4 3 -10 13 -9
13 -10 0 -10 -13 0 -13 -2 -1 -9 8 -5 21 -7 29 -3 10 3 13 1 8 -7 -4 -6 -17
-9 -29 -6 -12 2 -16 2 -8 -1 11 -5 11 -8 0 -15 -12 -7 -11 -9 1 -9 13 0 13 -1
0 -11 -13 -9 -13 -10 0 -6 8 2 14 10 13 16 -4 13 13 15 22 2 10 -17 -34 -34
-51 -20 -8 6 -14 8 -14 3 0 -15 14 -29 30 -29 10 0 14 -12 15 -45 0 -25 3 -50
7 -56 9 -14 -17 -38 -32 -29 -6 3 -8 10 -5 15 3 5 1 11 -5 15 -7 4 -7 12 0 26
10 17 7 23 -12 20 -8 -1 -5 20 6 38 7 11 5 13 -9 7 -15 -5 -16 -4 -5 9 10 12
9 15 -6 16 -11 0 -14 3 -6 6 6 2 9 10 6 15 -4 6 -2 8 3 5 6 -4 16 0 22 7 8 10
9 16 1 21 -5 3 -10 1 -10 -6 0 -7 -3 -9 -6 -6 -4 4 -2 12 3 19 6 7 9 21 8 31
-2 9 0 15 5 12 4 -2 15 4 25 15 22 24 29 25 21 4z m-5931 -93 c0 -26 -4 -37
-12 -34 -7 3 -13 9 -13 13 0 5 6 11 13 14 6 3 1 3 -13 -1 -23 -5 -24 -5 -10
13 12 15 29 31 35 34 1 0 1 -17 0 -39z m-8 -86 c0 -8 -4 -15 -9 -15 -10 0 -11
14 -1 23 9 10 10 9 10 -8z m5921 -116 c-2 -3 3 -13 11 -23 14 -17 9 -32 -7
-22 -6 3 -9 14 -8 24 2 9 -2 21 -8 25 -7 6 -7 7 2 5 8 -2 12 -6 10 -9z m-5898
-69 c0 -5 -5 -12 -10 -15 -6 -4 -8 -11 -4 -16 3 -6 -2 -17 -12 -24 -26 -20
-39 -19 -23 2 11 12 11 17 2 20 -9 3 -9 9 -2 22 12 18 49 26 49 11z m-24 -87
c-10 -10 -19 5 -10 18 6 11 8 11 12 0 2 -7 1 -15 -2 -18z m5853 -1312 c12 -8
12 -12 -2 -25 -19 -20 -24 -20 -24 -1 0 8 4 12 9 9 4 -3 8 -1 8 5 0 5 -6 12
-12 14 -7 3 -8 6 -3 6 6 0 16 -3 24 -8z m-2899 -811 c-8 -5 -19 -10 -25 -10
-5 0 -3 5 5 10 8 5 20 10 25 10 6 0 3 -5 -5 -10z m-79 -14 c5 3 9 0 9 -6 0
-15 -23 -7 -26 8 -1 7 0 8 3 2 2 -5 9 -8 14 -4z m290 -27 c1 -5 2 -15 3 -21 0
-7 6 -13 13 -13 6 0 14 -3 17 -6 3 -3 -2 -6 -11 -6 -10 0 -21 5 -25 11 -5 8
-8 7 -8 -1 0 -7 -12 0 -26 14 -18 18 -22 28 -14 33 15 9 49 1 51 -11z m-103
-21 c7 -7 12 -17 12 -22 0 -6 -5 -4 -10 4 -18 29 -64 13 -53 -18 5 -16 5 -16
-12 0 -17 15 -13 44 5 33 5 -3 11 -1 15 5 8 14 28 13 43 -2z m-359 -16 c11
-19 15 -19 35 -3 15 13 19 13 27 0 12 -19 11 -26 -2 -34 -6 -4 -9 0 -7 8 2 9
-1 16 -7 16 -5 0 -8 -8 -7 -17 3 -12 1 -13 -10 -5 -7 6 -29 9 -48 6 -19 -2
-46 -5 -60 -6 -14 -2 -30 1 -37 6 -14 10 -36 0 -28 -13 3 -5 2 -11 -3 -14 -4
-2 -14 5 -21 16 -11 18 -11 20 2 15 8 -3 19 -1 24 4 5 5 18 11 29 13 10 3 27
7 37 11 10 4 17 3 17 -4 0 -6 -3 -10 -7 -10 -5 1 -15 1 -23 0 -13 -1 -13 -2 0
-11 9 -5 19 -5 26 0 6 6 14 7 17 4 4 -4 5 2 3 13 -3 15 1 20 15 19 11 -1 23
-7 28 -14z m243 3 c3 0 10 -4 15 -9 4 -5 3 -6 -4 -3 -6 4 -18 1 -26 -8 -12
-12 -17 -12 -26 -1 -13 15 6 39 23 28 6 -4 14 -7 18 -7z m-102 -5 c0 -5 -5
-10 -11 -10 -5 0 -7 5 -4 10 3 6 8 10 11 10 2 0 4 -4 4 -10z m260 0 c0 -5 -4
-10 -10 -10 -5 0 -10 5 -10 10 0 6 5 10 10 10 6 0 10 -4 10 -10z m-2352 -87
c-13 -16 -15 -16 -21 1 -4 10 0 14 13 13 14 -1 16 -4 8 -14z"/>
<path d="M1793 6472 c0 -12 5 -22 9 -22 11 0 10 12 -2 30 -7 12 -9 10 -7 -8z"/>
<path d="M800 3421 c0 -6 4 -13 10 -16 6 -3 7 1 4 9 -7 18 -14 21 -14 7z"/>
<path d="M6701 3216 c-9 -10 -8 -16 4 -26 11 -9 12 -17 4 -31 -8 -15 -6 -21 6
-26 13 -5 14 -7 3 -14 -9 -6 -9 -9 -1 -9 19 0 26 20 9 26 -12 5 -13 10 -5 26
8 15 8 22 -1 28 -15 10 -15 21 2 31 8 5 9 9 2 9 -6 0 -17 -6 -23 -14z"/>
<path d="M801 2996 c-9 -11 -9 -16 1 -22 7 -4 10 -4 6 1 -4 4 -3 14 3 22 6 7
9 13 6 13 -2 0 -10 -6 -16 -14z"/>
<path d="M3930 764 c0 -17 27 -37 34 -25 4 5 2 12 -4 16 -5 3 -10 3 -10 -2 0
-4 -5 -1 -10 7 -5 8 -10 10 -10 4z"/>
<path d="M3482 721 c-11 -7 -11 -9 0 -14 9 -3 15 1 15 9 0 8 -1 14 -1 14 -1 0
-7 -4 -14 -9z"/>
<path d="M5235 7289 c-4 -6 -5 -12 -2 -15 2 -3 7 2 10 11 7 17 1 20 -8 4z"/>
<path d="M5110 7280 c0 -5 5 -10 10 -10 6 0 10 5 10 10 0 6 -4 10 -10 10 -5 0
-10 -4 -10 -10z"/>
<path d="M2190 7266 c0 -2 7 -7 16 -10 8 -3 12 -2 9 4 -6 10 -25 14 -25 6z"/>
<path d="M5494 7258 c-4 -7 -4 -10 1 -6 4 4 15 2 24 -5 14 -11 14 -10 2 6 -16
20 -18 21 -27 5z"/>
<path d="M4949 7243 c-13 -16 -12 -17 4 -4 16 13 21 21 13 21 -2 0 -10 -8 -17
-17z"/>
<path d="M5019 7233 c-13 -16 -12 -17 4 -4 9 7 17 15 17 17 0 8 -8 3 -21 -13z"/>
<path d="M2315 7231 c-3 -5 -2 -12 3 -15 5 -3 9 1 9 9 0 17 -3 19 -12 6z"/>
<path d="M2474 7206 c1 -14 4 -28 7 -31 3 -3 5 6 5 19 -1 14 -4 28 -7 31 -3 3
-5 -6 -5 -19z"/>
<path d="M2530 7220 c0 -5 5 -10 11 -10 5 0 7 5 4 10 -3 6 -8 10 -11 10 -2 0
-4 -4 -4 -10z"/>
<path d="M5514 7200 c0 -13 4 -16 10 -10 7 7 7 13 0 20 -6 6 -10 3 -10 -10z"/>
<path d="M1960 7200 c-9 -6 -10 -10 -3 -10 6 0 15 5 18 10 8 12 4 12 -15 0z"/>
<path d="M2576 7202 c-3 -5 1 -9 9 -9 8 0 12 4 9 9 -3 4 -7 8 -9 8 -2 0 -6 -4
-9 -8z"/>
<path d="M4915 7201 c-3 -5 -2 -12 3 -15 5 -3 9 1 9 9 0 17 -3 19 -12 6z"/>
<path d="M1990 7196 c0 -2 8 -10 18 -17 15 -13 16 -12 3 4 -13 16 -21 21 -21
13z"/>
<path d="M2650 7180 c0 -5 5 -10 11 -10 5 0 7 5 4 10 -3 6 -8 10 -11 10 -2 0
-4 -4 -4 -10z"/>
<path d="M2690 7181 c0 -6 4 -13 10 -16 6 -3 7 1 4 9 -7 18 -14 21 -14 7z"/>
<path d="M2597 7173 c-10 -9 -9 -23 1 -23 5 0 9 7 9 15 0 17 -1 18 -10 8z"/>
<path d="M1936 7153 c-6 -14 -5 -15 5 -6 7 7 10 15 7 18 -3 3 -9 -2 -12 -12z"/>
<path d="M2759 7153 c-13 -16 -12 -17 4 -4 9 7 17 15 17 17 0 8 -8 3 -21 -13z"/>
<path d="M4711 7167 c2 -1 13 -9 24 -17 19 -14 19 -14 6 3 -7 9 -18 17 -24 17
-6 0 -8 -1 -6 -3z"/>
<path d="M4780 7156 c7 -7 13 -7 20 0 6 6 3 10 -10 10 -13 0 -16 -4 -10 -10z"/>
<path d="M4820 7166 c0 -2 8 -10 18 -17 15 -13 16 -12 3 4 -13 16 -21 21 -21
13z"/>
<path d="M2630 7146 c0 -2 7 -7 16 -10 8 -3 12 -2 9 4 -6 10 -25 14 -25 6z"/>
<path d="M2716 7133 c-6 -14 -5 -15 5 -6 7 7 10 15 7 18 -3 3 -9 -2 -12 -12z"/>
<path d="M2856 7138 c3 -5 10 -6 15 -3 13 9 11 12 -6 12 -8 0 -12 -4 -9 -9z"/>
<path d="M4567 7139 c7 -7 15 -10 18 -7 3 3 -2 9 -12 12 -14 6 -15 5 -6 -5z"/>
<path d="M4697 7119 c4 -13 8 -18 11 -10 2 7 -1 18 -6 23 -8 8 -9 4 -5 -13z"/>
<path d="M2753 7115 c0 -8 4 -12 9 -9 4 3 8 9 8 15 0 5 -4 9 -8 9 -5 0 -9 -7
-9 -15z"/>
<path d="M3030 7126 c0 -2 7 -7 16 -10 8 -3 12 -2 9 4 -6 10 -25 14 -25 6z"/>
<path d="M4673 7115 c0 -8 4 -12 9 -9 5 3 6 10 3 15 -9 13 -12 11 -12 -6z"/>
<path d="M4726 7118 c3 -5 10 -6 15 -3 13 9 11 12 -6 12 -8 0 -12 -4 -9 -9z"/>
<path d="M5514 7106 c1 -8 5 -18 8 -22 4 -3 5 1 4 10 -1 8 -5 18 -8 22 -4 3
-5 -1 -4 -10z"/>
<path d="M1955 7102 c3 -3 -1 -12 -7 -21 -8 -10 -4 -9 10 3 26 23 26 23 7 23
-8 0 -13 -3 -10 -5z"/>
<path d="M4459 7108 c-5 -16 -4 -46 2 -42 4 2 7 13 6 24 -1 17 -5 26 -8 18z"/>
<path d="M5550 7099 c0 -5 5 -7 10 -4 6 3 10 8 10 11 0 2 -4 4 -10 4 -5 0 -10
-5 -10 -11z"/>
<path d="M1913 7085 c0 -8 4 -12 9 -9 5 3 6 10 3 15 -9 13 -12 11 -12 -6z"/>
<path d="M2811 7093 c-2 -20 16 -24 30 -5 13 15 12 16 -3 4 -13 -10 -17 -10
-21 0 -4 9 -6 9 -6 1z"/>
<path d="M4574 7081 c0 -13 6 -17 19 -13 10 2 16 5 15 6 -2 1 -10 7 -18 13
-13 10 -16 8 -16 -6z"/>
<path d="M3067 7079 c7 -7 15 -10 18 -7 3 3 -2 9 -12 12 -14 6 -15 5 -6 -5z"/>
<path d="M4486 7082 c-3 -5 1 -9 9 -9 8 0 12 4 9 9 -3 4 -7 8 -9 8 -2 0 -6 -4
-9 -8z"/>
<path d="M2913 7065 c0 -8 4 -12 9 -9 5 3 6 10 3 15 -9 13 -12 11 -12 -6z"/>
<path d="M5570 7060 c0 -5 5 -10 11 -10 5 0 7 5 4 10 -3 6 -8 10 -11 10 -2 0
-4 -4 -4 -10z"/>
<path d="M1934 7049 c-3 -6 -2 -15 3 -20 5 -5 9 -1 9 11 0 23 -2 24 -12 9z"/>
<path d="M3070 7046 c0 -2 7 -7 16 -10 8 -3 12 -2 9 4 -6 10 -25 14 -25 6z"/>
<path d="M4290 7041 c0 -6 4 -13 10 -16 6 -3 7 1 4 9 -7 18 -14 21 -14 7z"/>
<path d="M4445 7039 c-4 -6 -5 -12 -2 -15 2 -3 7 2 10 11 7 17 1 20 -8 4z"/>
<path d="M4133 7025 c0 -8 4 -12 9 -9 5 3 6 10 3 15 -9 13 -12 11 -12 -6z"/>
<path d="M5555 7030 c-4 -6 -12 -7 -18 -4 -7 4 -8 3 -4 -1 13 -15 34 -14 34 1
0 17 -4 18 -12 4z"/>
<path d="M3145 7020 c-3 -6 1 -7 9 -4 18 7 21 14 7 14 -6 0 -13 -4 -16 -10z"/>
<path d="M4170 7019 c0 -5 5 -7 10 -4 6 3 10 8 10 11 0 2 -4 4 -10 4 -5 0 -10
-5 -10 -11z"/>
<path d="M3093 7003 c0 -8 6 -9 19 -2 10 5 18 11 18 12 0 2 -8 3 -18 3 -10 0
-19 -6 -19 -13z"/>
<path d="M3170 6995 c5 -7 6 -16 2 -21 -4 -5 -3 -5 2 -1 15 12 15 34 0 34 -9
0 -11 -4 -4 -12z"/>
<path d="M3290 7000 c0 -5 5 -10 11 -10 5 0 7 5 4 10 -3 6 -8 10 -11 10 -2 0
-4 -4 -4 -10z"/>
<path d="M4030 7001 c0 -6 4 -13 10 -16 6 -3 7 1 4 9 -7 18 -14 21 -14 7z"/>
<path d="M3575 6989 c-4 -6 -5 -12 -2 -15 2 -3 7 2 10 11 7 17 1 20 -8 4z"/>
<path d="M1917 6972 c-15 -17 -15 -18 6 -19 12 0 16 1 9 4 -10 4 -10 8 -1 19
17 20 5 17 -14 -4z"/>
<path d="M3415 6981 c-3 -5 -2 -12 3 -15 5 -3 9 1 9 9 0 17 -3 19 -12 6z"/>
<path d="M3500 6980 c-9 -6 -10 -10 -3 -10 6 0 15 5 18 10 8 12 4 12 -15 0z"/>
<path d="M4097 6983 c-8 -7 11 -33 24 -33 5 0 9 5 9 10 0 6 -6 9 -12 8 -7 -2
-12 3 -10 10 2 13 -1 15 -11 5z"/>
<path d="M3833 6955 c0 -8 4 -12 9 -9 5 3 6 10 3 15 -9 13 -12 11 -12 -6z"/>
<path d="M4025 6959 c-4 -6 -5 -12 -2 -15 2 -3 7 2 10 11 7 17 1 20 -8 4z"/>
<path d="M4155 6950 c-3 -6 1 -7 9 -4 18 7 21 14 7 14 -6 0 -13 -4 -16 -10z"/>
<path d="M3308 6943 c7 -3 16 -2 19 1 4 3 -2 6 -13 5 -11 0 -14 -3 -6 -6z"/>
<path d="M3348 6943 c6 -2 10 -9 7 -14 -4 -5 1 -6 10 -2 13 5 14 7 3 14 -7 5
-17 8 -23 8 -5 0 -4 -3 3 -6z"/>
<path d="M3950 6940 c0 -5 5 -10 11 -10 5 0 7 5 4 10 -3 6 -8 10 -11 10 -2 0
-4 -4 -4 -10z"/>
<path d="M3660 6932 c0 -6 -8 -9 -17 -6 -15 5 -16 4 -3 -5 16 -11 40 3 27 16
-4 3 -7 1 -7 -5z"/>
<path d="M3694 6921 c0 -12 6 -17 18 -13 10 2 18 9 18 15 0 6 -3 7 -7 4 -3 -4
-11 -3 -17 3 -8 6 -12 3 -12 -9z"/>
<path d="M1854 6922 c4 -3 14 -7 22 -8 9 -1 13 0 10 4 -4 3 -14 7 -22 8 -9 1
-13 0 -10 -4z"/>
<path d="M3442 6916 c7 -8 15 -12 17 -11 5 6 -10 25 -20 25 -5 0 -4 -6 3 -14z"/>
<path d="M3500 6926 c0 -2 8 -10 18 -17 15 -13 16 -12 3 4 -13 16 -21 21 -21
13z"/>
<path d="M3545 6919 c-4 -6 -5 -12 -2 -15 2 -3 7 2 10 11 7 17 1 20 -8 4z"/>
<path d="M3788 6912 c9 -10 19 -17 21 -16 6 5 -20 34 -30 34 -5 0 -1 -8 9 -18z"/>
<path d="M3823 6917 c-3 -6 -1 -7 5 -3 5 3 12 1 14 -6 3 -8 6 -7 10 3 7 17
-19 22 -29 6z"/>
<path d="M3916 6917 c3 -10 9 -15 12 -12 3 3 0 11 -7 18 -10 9 -11 8 -5 -6z"/>
<path d="M3990 6910 c6 -11 13 -20 16 -20 2 0 0 9 -6 20 -6 11 -13 20 -16 20
-2 0 0 -9 6 -20z"/>
<path d="M4015 6921 c-3 -5 -2 -12 3 -15 5 -3 9 1 9 9 0 17 -3 19 -12 6z"/>
<path d="M5568 6913 c6 -2 9 -10 6 -15 -4 -7 -2 -8 5 -4 13 9 5 26 -12 25 -9
0 -8 -2 1 -6z"/>
<path d="M3483 6903 c9 -2 14 -9 11 -15 -4 -7 -2 -8 5 -4 15 10 4 26 -17 25
-15 -1 -15 -2 1 -6z"/>
<path d="M3557 6896 c-4 -9 -13 -13 -21 -10 -8 3 -17 1 -20 -4 -3 -5 5 -9 19
-9 21 0 42 23 31 34 -2 2 -6 -3 -9 -11z"/>
<path d="M5614 6883 c1 -12 6 -26 11 -30 4 -5 5 -2 1 5 -4 6 -3 12 1 12 5 0
15 -6 23 -12 12 -11 12 -10 1 4 -7 9 -9 23 -5 30 6 11 5 11 -8 0 -13 -10 -17
-10 -21 0 -3 7 -5 3 -3 -9z"/>
<path d="M5590 6861 c0 -6 4 -13 10 -16 6 -3 7 1 4 9 -7 18 -14 21 -14 7z"/>
<path d="M1879 6848 c-7 -23 -4 -35 7 -35 9 0 11 4 4 12 -5 7 -7 15 -3 18 3 4
3 7 0 7 -4 0 -7 -1 -8 -2z"/>
<path d="M5710 6841 c0 -6 4 -13 10 -16 6 -3 7 1 4 9 -7 18 -14 21 -14 7z"/>
<path d="M5628 6833 c10 -4 10 -8 0 -21 -12 -14 -11 -14 9 -1 16 9 19 16 10
21 -7 4 -16 7 -22 7 -5 0 -4 -3 3 -6z"/>
<path d="M5595 6820 c-3 -5 -1 -10 4 -10 6 0 11 5 11 10 0 6 -2 10 -4 10 -3 0
-8 -4 -11 -10z"/>
<path d="M5690 6798 c0 -4 4 -8 9 -8 6 0 12 4 15 8 3 5 -1 9 -9 9 -8 0 -15 -4
-15 -9z"/>
<path d="M5987 6799 c7 -7 15 -10 18 -7 3 3 -2 9 -12 12 -14 6 -15 5 -6 -5z"/>
<path d="M5723 6775 c-3 -9 -3 -18 -1 -21 3 -3 8 4 11 16 6 23 -1 27 -10 5z"/>
<path d="M5855 6780 c-3 -5 -1 -10 4 -10 6 0 11 5 11 10 0 6 -2 10 -4 10 -3 0
-8 -4 -11 -10z"/>
<path d="M5890 6779 c0 -5 5 -7 10 -4 6 3 10 8 10 11 0 2 -4 4 -10 4 -5 0 -10
-5 -10 -11z"/>
<path d="M6090 6779 c0 -5 5 -7 10 -4 6 3 10 8 10 11 0 2 -4 4 -10 4 -5 0 -10
-5 -10 -11z"/>
<path d="M6156 6767 c3 -10 9 -15 12 -12 3 3 0 11 -7 18 -10 9 -11 8 -5 -6z"/>
<path d="M1850 6759 c0 -5 5 -7 10 -4 6 3 10 8 10 11 0 2 -4 4 -10 4 -5 0 -10
-5 -10 -11z"/>
<path d="M1879 6753 c-13 -16 -12 -17 4 -4 9 7 17 15 17 17 0 8 -8 3 -21 -13z"/>
<path d="M5790 6761 c0 -6 4 -13 10 -16 6 -3 7 1 4 9 -7 18 -14 21 -14 7z"/>
<path d="M5836 6747 c3 -10 9 -15 12 -12 3 3 0 11 -7 18 -10 9 -11 8 -5 -6z"/>
<path d="M5734 6736 c-3 -9 -9 -14 -13 -11 -4 2 -8 -2 -8 -10 0 -8 3 -15 6
-15 10 0 33 41 27 47 -3 3 -8 -2 -12 -11z"/>
<path d="M5865 6740 c-3 -6 1 -7 9 -4 18 7 21 14 7 14 -6 0 -13 -4 -16 -10z"/>
<path d="M5900 6745 c0 -2 6 -8 13 -14 10 -8 14 -7 14 2 0 8 -6 14 -14 14 -7
0 -13 -1 -13 -2z"/>
<path d="M6075 6741 c-3 -5 -2 -12 3 -15 5 -3 9 1 9 9 0 17 -3 19 -12 6z"/>
<path d="M6275 6740 c3 -5 8 -10 11 -10 2 0 4 5 4 10 0 6 -5 10 -11 10 -5 0
-7 -4 -4 -10z"/>
<path d="M5756 6725 c-9 -26 -7 -32 5 -12 6 10 9 21 6 23 -2 3 -7 -2 -11 -11z"/>
<path d="M5810 6730 c-8 -5 -12 -12 -9 -15 4 -3 12 1 19 10 14 17 11 19 -10 5z"/>
<path d="M5980 6731 c0 -6 4 -13 10 -16 6 -3 7 1 4 9 -7 18 -14 21 -14 7z"/>
<path d="M5875 6719 c-4 -6 -5 -12 -2 -15 2 -3 7 2 10 11 7 17 1 20 -8 4z"/>
<path d="M5775 6710 c-3 -5 -1 -10 4 -10 6 0 11 5 11 10 0 6 -2 10 -4 10 -3 0
-8 -4 -11 -10z"/>
<path d="M1796 6702 c-3 -5 1 -9 9 -9 8 0 12 4 9 9 -3 4 -7 8 -9 8 -2 0 -6 -4
-9 -8z"/>
<path d="M5625 6701 c3 -3 17 -6 31 -7 13 0 22 2 19 5 -3 3 -17 6 -31 7 -13 0
-22 -2 -19 -5z"/>
<path d="M1835 6669 c-4 -6 -5 -12 -2 -15 2 -3 7 2 10 11 7 17 1 20 -8 4z"/>
<path d="M1853 6650 c-3 -11 -10 -20 -15 -20 -5 0 -6 -5 -2 -12 5 -7 2 -9 -9
-5 -10 4 -14 2 -11 -7 3 -7 11 -13 19 -13 8 0 13 2 11 4 -2 3 2 20 10 39 8 19
12 34 8 34 -3 0 -8 -9 -11 -20z"/>
<path d="M1766 6601 c-15 -16 -15 -19 -2 -24 9 -4 18 -1 22 5 4 7 3 8 -4 4
-16 -9 -15 7 0 22 7 7 10 12 7 12 -3 0 -14 -8 -23 -19z"/>
<path d="M6375 6580 c-3 -5 -1 -10 4 -10 6 0 11 5 11 10 0 6 -2 10 -4 10 -3 0
-8 -4 -11 -10z"/>
<path d="M1717 6570 c7 -8 20 -15 29 -16 9 -1 13 1 9 4 -4 4 -10 7 -13 7 -4 0
-14 4 -22 9 -12 7 -13 6 -3 -4z"/>
<path d="M1815 6570 c-4 -6 -10 -8 -14 -6 -4 3 -13 0 -21 -5 -12 -7 -11 -8 5
-6 24 3 65 26 48 27 -6 0 -15 -5 -18 -10z"/>
<path d="M6328 6563 c6 -2 9 -10 6 -15 -4 -7 -2 -8 5 -4 13 9 5 26 -12 25 -9
0 -8 -2 1 -6z"/>
<path d="M1709 6535 c10 -22 -4 -59 -19 -50 -5 3 -12 0 -16 -6 -4 -8 -3 -9 4
-5 7 4 12 3 12 -2 0 -16 -13 -22 -25 -12 -9 8 -14 6 -18 -4 -4 -11 -1 -13 10
-9 12 5 14 3 8 -8 -6 -9 -2 -8 11 3 10 9 27 30 36 46 16 26 16 31 2 48 -15 18
-15 18 -5 -1z"/>
<path d="M1676 6531 c-3 -5 1 -11 9 -14 9 -4 12 -1 8 9 -6 16 -10 17 -17 5z"/>
<path d="M1559 6498 c-6 -23 -7 -48 -1 -48 4 0 8 11 8 25 0 21 -4 33 -7 23z"/>
<path d="M1605 6480 c-10 -11 -14 -20 -9 -20 5 0 15 9 22 20 7 11 11 20 9 20
-2 0 -12 -9 -22 -20z"/>
<path d="M1450 6479 c0 -5 5 -7 10 -4 6 3 10 8 10 11 0 2 -4 4 -10 4 -5 0 -10
-5 -10 -11z"/>
<path d="M1635 6479 c-4 -6 -5 -12 -2 -15 2 -3 7 2 10 11 7 17 1 20 -8 4z"/>
<path d="M960 6460 c-12 -7 -10 -9 7 -7 12 0 19 5 17 9 -6 10 -6 10 -24 -2z"/>
<path d="M1239 6468 c-5 -18 -6 -39 -2 -34 4 3 11 1 18 -4 8 -7 12 -5 12 5 0
7 -5 13 -11 12 -6 -1 -10 4 -8 11 2 10 -6 19 -9 10z"/>
<path d="M1393 6449 c-2 -23 3 -25 10 -4 4 8 3 16 -1 19 -4 3 -9 -4 -9 -15z"/>
<path d="M1506 6458 c3 -5 10 -6 15 -3 13 9 11 12 -6 12 -8 0 -12 -4 -9 -9z"/>
<path d="M6350 6461 c0 -6 4 -12 8 -15 5 -3 9 1 9 9 0 8 -4 15 -9 15 -4 0 -8
-4 -8 -9z"/>
<path d="M1150 6456 c0 -2 8 -10 18 -17 15 -13 16 -12 3 4 -13 16 -21 21 -21
13z"/>
<path d="M1315 6450 c-4 -6 -10 -8 -15 -5 -4 3 -7 -2 -6 -10 1 -8 4 -16 7 -17
2 -2 3 -1 1 1 -1 2 5 13 15 23 9 10 13 18 10 18 -3 0 -9 -5 -12 -10z"/>
<path d="M1050 6441 c0 -6 4 -13 10 -16 6 -3 7 1 4 9 -7 18 -14 21 -14 7z"/>
<path d="M1130 6441 c0 -6 4 -13 10 -16 6 -3 7 1 4 9 -7 18 -14 21 -14 7z"/>
<path d="M1476 6435 c-3 -8 -1 -15 4 -15 6 0 10 7 10 15 0 8 -2 15 -4 15 -2 0
-6 -7 -10 -15z"/>
<path d="M1615 6440 c3 -5 8 -10 11 -10 2 0 4 5 4 10 0 6 -5 10 -11 10 -5 0
-7 -4 -4 -10z"/>
<path d="M6430 6441 c0 -6 4 -13 10 -16 6 -3 7 1 4 9 -7 18 -14 21 -14 7z"/>
<path d="M1106 6422 c-3 -5 1 -9 9 -9 8 0 12 4 9 9 -3 4 -7 8 -9 8 -2 0 -6 -4
-9 -8z"/>
<path d="M1205 6419 c-4 -6 -14 -8 -24 -4 -13 5 -14 4 -3 -6 10 -11 15 -10 29
4 10 9 14 17 11 17 -4 0 -10 -5 -13 -11z"/>
<path d="M998 6413 c7 -3 16 -2 19 1 4 3 -2 6 -13 5 -11 0 -14 -3 -6 -6z"/>
<path d="M1030 6417 c0 -2 6 -10 14 -16 11 -9 16 -9 22 1 4 7 4 10 -1 6 -4 -4
-14 -3 -22 3 -7 6 -13 9 -13 6z"/>
<path d="M6347 6383 c6 -2 9 -15 7 -29 -2 -13 0 -24 5 -24 5 0 8 8 6 18 -1 9
1 22 6 27 5 7 0 11 -14 12 -12 0 -17 -1 -10 -4z"/>
<path d="M6370 6280 c0 -5 5 -10 10 -10 6 0 10 5 10 10 0 6 -4 10 -10 10 -5 0
-10 -4 -10 -10z"/>
<path d="M736 6262 c-3 -5 1 -9 9 -9 8 0 12 4 9 9 -3 4 -7 8 -9 8 -2 0 -6 -4
-9 -8z"/>
<path d="M6470 6240 c0 -5 5 -10 11 -10 5 0 7 5 4 10 -3 6 -8 10 -11 10 -2 0
-4 -4 -4 -10z"/>
<path d="M715 6220 c3 -5 8 -10 11 -10 2 0 4 5 4 10 0 6 -5 10 -11 10 -5 0 -7
-4 -4 -10z"/>
<path d="M6405 6222 c-15 -11 -17 -32 -2 -29 6 1 11 -4 9 -11 -1 -8 2 -11 8
-7 8 5 8 11 0 20 -7 8 -9 19 -5 25 7 12 4 13 -10 2z"/>
<path d="M6436 6222 c-2 -4 -1 -14 4 -22 7 -11 9 -9 7 8 -1 24 -3 26 -11 14z"/>
<path d="M735 6189 c-4 -6 -5 -12 -2 -15 2 -3 7 2 10 11 7 17 1 20 -8 4z"/>
<path d="M6353 6193 c9 -2 17 -9 17 -14 0 -5 5 -9 11 -9 8 0 8 5 -1 15 -7 8
-20 14 -29 14 -13 -1 -13 -2 2 -6z"/>
<path d="M6433 6164 c-3 -8 -2 -19 3 -24 5 -5 9 1 9 16 0 28 -3 30 -12 8z"/>
<path d="M750 6161 c0 -6 4 -12 8 -15 5 -3 9 1 9 9 0 8 -4 15 -9 15 -4 0 -8
-4 -8 -9z"/>
<path d="M6350 6160 c0 -5 5 -10 11 -10 5 0 7 5 4 10 -3 6 -8 10 -11 10 -2 0
-4 -4 -4 -10z"/>
<path d="M6380 6156 c0 -2 7 -6 15 -10 8 -3 15 -1 15 4 0 6 -7 10 -15 10 -8 0
-15 -2 -15 -4z"/>
<path d="M737 6119 c4 -13 8 -18 11 -10 2 7 -1 18 -6 23 -8 8 -9 4 -5 -13z"/>
<path d="M6361 6130 c-16 -10 -16 -21 1 -31 10 -7 10 -9 -2 -9 -12 -1 -11 -3
3 -11 9 -6 15 -14 12 -19 -3 -5 8 -7 25 -5 22 3 29 1 23 -8 -4 -7 2 -5 12 3
17 14 18 13 12 -4 -6 -16 -5 -17 8 -6 13 11 12 14 -8 31 -12 10 -16 18 -9 19
6 0 12 5 12 11 0 5 -10 3 -22 -5 -32 -23 -47 -19 -19 5 13 11 21 23 17 26 -4
4 -11 1 -16 -7 -11 -18 -40 -22 -40 -4 0 8 6 11 15 8 8 -4 15 -4 15 -1 0 10
-27 15 -39 7z m27 -42 c-2 -7 7 -13 19 -13 11 0 24 -2 27 -5 8 -9 -38 -6 -52
3 -7 5 -10 13 -7 18 9 13 15 11 13 -3z"/>
<path d="M756 6093 c-6 -14 -5 -15 5 -6 7 7 10 15 7 18 -3 3 -9 -2 -12 -12z"/>
<path d="M6520 6095 c-11 -13 -15 -13 -22 -3 -5 8 -7 4 -5 -11 2 -14 9 -26 16
-27 7 -2 8 -1 1 3 -7 3 -3 14 11 29 12 13 20 24 17 24 -3 0 -11 -7 -18 -15z"/>
<path d="M6572 6105 c4 -4 2 -15 -4 -23 -14 -16 -20 -72 -9 -72 4 0 7 12 6 28
-1 15 4 34 12 44 12 13 12 17 1 24 -7 4 -10 4 -6 -1z"/>
<path d="M629 6083 c-13 -16 -12 -17 4 -4 16 13 21 21 13 21 -2 0 -10 -8 -17
-17z"/>
<path d="M6460 6085 c0 -8 4 -15 10 -15 5 0 7 7 4 15 -4 8 -8 15 -10 15 -2 0
-4 -7 -4 -15z"/>
<path d="M709 6063 c-13 -17 -13 -17 6 -3 11 8 22 16 24 17 2 2 0 3 -6 3 -6 0
-17 -8 -24 -17z"/>
<path d="M675 6051 c-3 -5 -2 -12 3 -15 5 -3 9 1 9 9 0 17 -3 19 -12 6z"/>
<path d="M6476 6042 c-3 -4 4 -9 15 -9 23 -2 25 3 4 10 -8 4 -16 3 -19 -1z"/>
<path d="M6616 6042 c-3 -5 1 -9 9 -9 8 0 12 4 9 9 -3 4 -7 8 -9 8 -2 0 -6 -4
-9 -8z"/>
<path d="M6650 6040 c0 -5 5 -10 11 -10 5 0 7 5 4 10 -3 6 -8 10 -11 10 -2 0
-4 -4 -4 -10z"/>
<path d="M766 6027 c3 -10 1 -17 -5 -17 -6 0 -11 5 -11 10 0 6 -5 10 -11 10
-8 0 -9 -4 0 -13 11 -14 5 -27 -11 -27 -5 0 -7 4 -3 9 3 5 2 12 -3 15 -4 2 -9
-4 -9 -15 -2 -21 17 -25 34 -8 8 8 13 8 17 0 4 -6 3 -11 -2 -11 -12 0 -11 -28
2 -33 13 -5 15 77 3 89 -4 5 -5 1 -1 -9z"/>
<path d="M6775 6029 c-4 -6 -5 -12 -2 -15 2 -3 7 2 10 11 7 17 1 20 -8 4z"/>
<path d="M606 6022 c-3 -5 1 -9 9 -9 8 0 12 4 9 9 -3 4 -7 8 -9 8 -2 0 -6 -4
-9 -8z"/>
<path d="M519 5993 c-13 -16 -12 -17 4 -4 16 13 21 21 13 21 -2 0 -10 -8 -17
-17z"/>
<path d="M6580 6000 c0 -5 5 -10 10 -10 6 0 10 5 10 10 0 6 -4 10 -10 10 -5 0
-10 -4 -10 -10z"/>
<path d="M6715 6000 c-3 -5 -1 -10 4 -10 6 0 11 5 11 10 0 6 -2 10 -4 10 -3 0
-8 -4 -11 -10z"/>
<path d="M6896 5978 c3 -5 10 -6 15 -3 13 9 11 12 -6 12 -8 0 -12 -4 -9 -9z"/>
<path d="M6774 5954 c1 -8 4 -15 7 -16 2 -2 3 -1 2 1 -2 2 2 9 7 16 7 8 5 12
-4 12 -8 0 -13 -6 -12 -13z"/>
<path d="M670 5940 c0 -5 7 -7 15 -4 8 4 15 8 15 10 0 2 -7 4 -15 4 -8 0 -15
-4 -15 -10z"/>
<path d="M6830 5946 c0 -2 7 -7 16 -10 8 -3 12 -2 9 4 -6 10 -25 14 -25 6z"/>
<path d="M7015 5940 c-3 -5 -1 -10 4 -10 6 0 11 5 11 10 0 6 -2 10 -4 10 -3 0
-8 -4 -11 -10z"/>
<path d="M6915 5930 c-4 -6 -11 -7 -17 -4 -7 4 -8 2 -4 -5 6 -9 11 -9 22 0 14
11 18 19 10 19 -3 0 -8 -5 -11 -10z"/>
<path d="M493 5890 c-1 -11 2 -22 6 -24 4 -3 7 4 6 14 -2 27 -10 33 -12 10z"/>
<path d="M634 5898 c3 -10 -2 -22 -12 -27 -9 -6 -12 -10 -7 -11 6 0 16 4 24 9
10 7 11 12 1 27 -9 16 -11 16 -6 2z"/>
<path d="M533 5885 c0 -8 4 -15 9 -15 4 0 8 4 8 9 0 6 -4 12 -8 15 -5 3 -9 -1
-9 -9z"/>
<path d="M590 5890 c8 -5 20 -10 25 -10 6 0 3 5 -5 10 -8 5 -19 10 -25 10 -5
0 -3 -5 5 -10z"/>
<path d="M6996 5887 c3 -10 9 -15 12 -12 3 3 0 11 -7 18 -10 9 -11 8 -5 -6z"/>
<path d="M370 5860 c0 -5 5 -10 11 -10 5 0 7 5 4 10 -3 6 -8 10 -11 10 -2 0
-4 -4 -4 -10z"/>
<path d="M440 5860 c-9 -6 -10 -10 -3 -10 6 0 15 5 18 10 8 12 4 12 -15 0z"/>
<path d="M7130 5866 c0 -2 7 -7 16 -10 8 -3 12 -2 9 4 -6 10 -25 14 -25 6z"/>
<path d="M474 5846 c1 -8 5 -18 8 -22 4 -3 5 1 4 10 -1 8 -5 18 -8 22 -4 3 -5
-1 -4 -10z"/>
<path d="M7296 5838 c3 -5 10 -6 15 -3 13 9 11 12 -6 12 -8 0 -12 -4 -9 -9z"/>
<path d="M254 5822 c4 -3 14 -7 22 -8 9 -1 13 0 10 4 -4 3 -14 7 -22 8 -9 1
-13 0 -10 -4z"/>
<path d="M7233 5813 c0 -9 4 -10 14 -2 7 6 13 12 13 14 0 1 -6 2 -13 2 -8 0
-14 -6 -14 -14z"/>
<path d="M373 5806 c0 -15 22 -15 34 0 4 5 4 6 -1 2 -5 -4 -14 -3 -21 2 -8 7
-12 5 -12 -4z"/>
<path d="M210 5780 c0 -5 5 -10 11 -10 5 0 7 5 4 10 -3 6 -8 10 -11 10 -2 0
-4 -4 -4 -10z"/>
<path d="M7393 5655 c0 -8 4 -12 9 -9 5 3 6 10 3 15 -9 13 -12 11 -12 -6z"/>
<path d="M116 5562 c-3 -5 1 -9 9 -9 8 0 12 4 9 9 -3 4 -7 8 -9 8 -2 0 -6 -4
-9 -8z"/>
<path d="M139 5513 c-13 -16 -12 -17 4 -4 16 13 21 21 13 21 -2 0 -10 -8 -17
-17z"/>
<path d="M7330 5497 c0 -2 6 -10 14 -16 11 -9 16 -9 22 1 4 7 4 10 -1 6 -4 -4
-14 -3 -22 3 -7 6 -13 9 -13 6z"/>
<path d="M135 5441 c3 -3 17 -6 31 -7 13 0 22 2 19 5 -3 3 -17 6 -31 7 -13 0
-22 -2 -19 -5z"/>
<path d="M7430 5441 c0 -6 4 -13 10 -16 6 -3 7 1 4 9 -7 18 -14 21 -14 7z"/>
<path d="M169 5403 c-13 -16 -12 -17 4 -4 16 13 21 21 13 21 -2 0 -10 -8 -17
-17z"/>
<path d="M7295 5400 c3 -5 8 -10 11 -10 2 0 4 5 4 10 0 6 -5 10 -11 10 -5 0
-7 -4 -4 -10z"/>
<path d="M7299 5378 c-5 -18 -6 -38 -1 -34 7 8 12 36 6 36 -2 0 -4 -1 -5 -2z"/>
<path d="M193 5333 c0 -9 4 -10 14 -2 7 6 13 12 13 14 0 1 -6 2 -13 2 -8 0
-14 -6 -14 -14z"/>
<path d="M7299 5313 c-12 -16 -12 -17 2 -6 9 7 19 10 22 6 4 -3 7 -1 7 5 0 17
-16 15 -31 -5z"/>
<path d="M215 5310 c-3 -6 1 -7 9 -4 18 7 21 14 7 14 -6 0 -13 -4 -16 -10z"/>
<path d="M160 5280 c-9 -6 -10 -10 -3 -10 6 0 15 5 18 10 8 12 4 12 -15 0z"/>
<path d="M7273 5249 c-2 -23 3 -25 10 -4 4 8 3 16 -1 19 -4 3 -9 -4 -9 -15z"/>
<path d="M190 5219 c0 -5 5 -7 10 -4 6 3 10 8 10 11 0 2 -4 4 -10 4 -5 0 -10
-5 -10 -11z"/>
<path d="M242 5178 c-15 -15 -15 -28 0 -28 6 0 8 3 5 7 -4 3 -2 12 4 20 14 16
7 17 -9 1z"/>
<path d="M7266 5178 c3 -4 9 -8 15 -8 5 0 9 4 9 8 0 5 -7 9 -15 9 -8 0 -12 -4
-9 -9z"/>
<path d="M196 5167 c3 -10 9 -15 12 -12 3 3 0 11 -7 18 -10 9 -11 8 -5 -6z"/>
<path d="M261 5154 c0 -11 3 -14 6 -6 3 7 2 16 -1 19 -3 4 -6 -2 -5 -13z"/>
<path d="M7233 5152 c0 -10 7 -19 14 -19 9 0 10 4 3 12 -5 7 -7 15 -3 18 3 4
1 7 -5 7 -6 0 -10 -8 -9 -18z"/>
<path d="M280 5111 c0 -6 4 -13 10 -16 6 -3 7 1 4 9 -7 18 -14 21 -14 7z"/>
<path d="M7233 5094 c0 -9 4 -11 12 -4 7 5 14 9 16 7 2 -1 3 0 1 2 -7 11 -29
7 -29 -5z"/>
<path d="M7200 5086 c0 -2 8 -10 18 -17 15 -13 16 -12 3 4 -13 16 -21 21 -21
13z"/>
<path d="M273 5048 c-1 -10 3 -18 9 -18 6 0 8 3 5 7 -4 3 -2 11 3 18 7 8 6 12
-3 12 -7 0 -14 -9 -14 -19z"/>
<path d="M236 5038 c3 -5 10 -6 15 -3 13 9 11 12 -6 12 -8 0 -12 -4 -9 -9z"/>
<path d="M300 5026 c0 -2 8 -10 18 -17 15 -13 16 -12 3 4 -13 16 -21 21 -21
13z"/>
<path d="M7196 5022 c-3 -5 1 -9 9 -9 8 0 12 4 9 9 -3 4 -7 8 -9 8 -2 0 -6 -4
-9 -8z"/>
<path d="M313 4953 c0 -9 4 -10 14 -2 7 6 13 12 13 14 0 1 -6 2 -13 2 -8 0
-14 -6 -14 -14z"/>
<path d="M296 4918 c3 -5 10 -6 15 -3 13 9 11 12 -6 12 -8 0 -12 -4 -9 -9z"/>
<path d="M275 4891 c-3 -5 -2 -12 3 -15 5 -3 9 1 9 9 0 17 -3 19 -12 6z"/>
<path d="M7175 4840 c3 -5 8 -10 11 -10 2 0 4 5 4 10 0 6 -5 10 -11 10 -5 0
-7 -4 -4 -10z"/>
<path d="M340 4826 c0 -2 8 -10 18 -17 15 -13 16 -12 3 4 -13 16 -21 21 -21
13z"/>
<path d="M313 4785 c0 -8 4 -12 9 -9 5 3 6 10 3 15 -9 13 -12 11 -12 -6z"/>
<path d="M356 4758 c3 -5 10 -6 15 -3 13 9 11 12 -6 12 -8 0 -12 -4 -9 -9z"/>
<path d="M7175 4761 c-3 -5 -2 -12 3 -15 5 -3 9 1 9 9 0 17 -3 19 -12 6z"/>
<path d="M7100 4746 c0 -2 9 -6 20 -9 11 -3 18 -1 14 4 -5 9 -34 13 -34 5z"/>
<path d="M346 4682 c-3 -5 1 -9 9 -9 8 0 12 4 9 9 -3 4 -7 8 -9 8 -2 0 -6 -4
-9 -8z"/>
<path d="M393 4653 c0 -9 4 -10 14 -2 7 6 13 12 13 14 0 1 -6 2 -13 2 -8 0
-14 -6 -14 -14z"/>
<path d="M345 4640 c-3 -6 1 -7 9 -4 18 7 21 14 7 14 -6 0 -13 -4 -16 -10z"/>
<path d="M7080 4636 c0 -8 4 -17 9 -20 5 -4 7 3 4 14 -6 23 -13 26 -13 6z"/>
<path d="M7113 4635 c0 -8 4 -12 9 -9 5 3 6 10 3 15 -9 13 -12 11 -12 -6z"/>
<path d="M375 4620 c3 -5 8 -10 11 -10 2 0 4 5 4 10 0 6 -5 10 -11 10 -5 0 -7
-4 -4 -10z"/>
<path d="M400 4560 c-9 -6 -10 -10 -3 -10 6 0 15 5 18 10 8 12 4 12 -15 0z"/>
<path d="M7055 4520 c-2 -3 5 -6 15 -7 11 -1 22 2 24 5 3 4 -4 8 -15 8 -11 0
-22 -3 -24 -6z"/>
<path d="M457 4484 c2 -7 11 -10 19 -7 19 7 18 10 -5 16 -13 3 -18 1 -14 -9z"/>
<path d="M7039 4478 c-5 -18 -6 -38 -1 -34 7 8 12 36 6 36 -2 0 -4 -1 -5 -2z"/>
<path d="M7065 4460 c-3 -6 1 -7 9 -4 18 7 21 14 7 14 -6 0 -13 -4 -16 -10z"/>
<path d="M453 4446 c0 -8 7 -13 16 -11 9 1 22 -3 30 -9 12 -9 12 -8 0 12 -8
12 -16 17 -17 12 -3 -8 -8 -8 -16 -1 -9 8 -13 7 -13 -3z"/>
<path d="M476 4382 c-3 -5 1 -9 9 -9 8 0 12 4 9 9 -3 4 -7 8 -9 8 -2 0 -6 -4
-9 -8z"/>
<path d="M489 4323 c-13 -16 -12 -17 4 -4 9 7 17 15 17 17 0 8 -8 3 -21 -13z"/>
<path d="M7017 4333 c-10 -9 -9 -23 1 -23 5 0 9 7 9 15 0 17 -1 18 -10 8z"/>
<path d="M514 4305 c1 -8 8 -21 16 -28 12 -10 12 -9 2 4 -6 9 -9 18 -6 21 3 3
1 9 -4 12 -6 3 -9 -1 -8 -9z"/>
<path d="M7080 4300 c-9 -6 -10 -10 -3 -10 6 0 15 5 18 10 8 12 4 12 -15 0z"/>
<path d="M6976 4274 c-6 -15 -4 -15 11 -3 10 7 20 15 22 16 2 2 -3 3 -11 3 -9
0 -19 -7 -22 -16z"/>
<path d="M6957 4209 c7 -7 15 -10 18 -7 3 3 -2 9 -12 12 -14 6 -15 5 -6 -5z"/>
<path d="M516 4202 c-3 -5 1 -9 9 -9 8 0 12 4 9 9 -3 4 -7 8 -9 8 -2 0 -6 -4
-9 -8z"/>
<path d="M7013 4191 c0 -11 5 -18 9 -15 4 3 5 11 1 19 -7 21 -12 19 -10 -4z"/>
<path d="M573 4092 c2 -12 6 -24 10 -28 3 -4 4 4 2 16 -6 30 -16 40 -12 12z"/>
<path d="M596 4053 c-4 -10 0 -23 11 -32 15 -15 16 -15 5 0 -7 9 -10 24 -6 33
3 9 4 16 1 16 -3 0 -8 -8 -11 -17z"/>
<path d="M556 4047 c3 -10 9 -15 12 -12 3 3 0 11 -7 18 -10 9 -11 8 -5 -6z"/>
<path d="M6910 4057 c0 -2 6 -10 14 -16 11 -9 16 -9 22 1 4 7 4 10 -1 6 -4 -4
-14 -3 -22 3 -7 6 -13 9 -13 6z"/>
<path d="M6976 4022 c-3 -5 1 -9 9 -9 8 0 12 4 9 9 -3 4 -7 8 -9 8 -2 0 -6 -4
-9 -8z"/>
<path d="M566 3998 c3 -5 10 -6 15 -3 13 9 11 12 -6 12 -8 0 -12 -4 -9 -9z"/>
<path d="M633 3928 c-2 -18 0 -20 7 -8 12 18 13 30 2 30 -4 0 -9 -10 -9 -22z"/>
<path d="M6896 3913 c-6 -14 -5 -15 5 -6 7 7 10 15 7 18 -3 3 -9 -2 -12 -12z"/>
<path d="M6930 3920 c0 -5 5 -10 11 -10 5 0 7 5 4 10 -3 6 -8 10 -11 10 -2 0
-4 -4 -4 -10z"/>
<path d="M590 3906 c0 -2 7 -7 16 -10 8 -3 12 -2 9 4 -6 10 -25 14 -25 6z"/>
<path d="M651 3874 c0 -11 3 -14 6 -6 3 7 2 16 -1 19 -3 4 -6 -2 -5 -13z"/>
<path d="M660 3826 c0 -2 8 -10 18 -17 15 -13 16 -12 3 4 -13 16 -21 21 -21
13z"/>
<path d="M6835 3789 c-4 -6 -5 -12 -2 -15 2 -3 7 2 10 11 7 17 1 20 -8 4z"/>
<path d="M610 3779 c0 -5 5 -7 10 -4 6 3 10 8 10 11 0 2 -4 4 -10 4 -5 0 -10
-5 -10 -11z"/>
<path d="M666 3781 c-4 -5 3 -7 14 -4 23 6 26 13 6 13 -8 0 -17 -4 -20 -9z"/>
<path d="M6854 3760 c0 -13 4 -16 10 -10 7 7 7 13 0 20 -6 6 -10 3 -10 -10z"/>
<path d="M670 3706 c0 -2 9 -6 20 -9 11 -3 18 -1 14 4 -5 9 -34 13 -34 5z"/>
<path d="M695 3670 c-3 -6 1 -7 9 -4 18 7 21 14 7 14 -6 0 -13 -4 -16 -10z"/>
<path d="M6798 3663 c7 -3 16 -2 19 1 4 3 -2 6 -13 5 -11 0 -14 -3 -6 -6z"/>
<path d="M6833 3654 c0 -9 4 -11 12 -4 7 5 14 9 16 7 2 -1 3 0 1 2 -7 11 -29
7 -29 -5z"/>
<path d="M716 3647 c3 -10 9 -15 12 -12 3 3 0 11 -7 18 -10 9 -11 8 -5 -6z"/>
<path d="M693 3635 c0 -8 4 -12 9 -9 5 3 6 10 3 15 -9 13 -12 11 -12 -6z"/>
<path d="M6790 3618 c0 -4 4 -8 9 -8 6 0 12 4 15 8 3 5 -1 9 -9 9 -8 0 -15 -4
-15 -9z"/>
<path d="M689 3563 c-13 -16 -12 -17 4 -4 9 7 17 15 17 17 0 8 -8 3 -21 -13z"/>
<path d="M6811 3554 c0 -11 3 -14 6 -6 3 7 2 16 -1 19 -3 4 -6 -2 -5 -13z"/>
<path d="M6835 3560 c3 -5 8 -10 11 -10 2 0 4 5 4 10 0 6 -5 10 -11 10 -5 0
-7 -4 -4 -10z"/>
<path d="M676 3522 c-3 -5 1 -9 9 -9 8 0 12 4 9 9 -3 4 -7 8 -9 8 -2 0 -6 -4
-9 -8z"/>
<path d="M6810 3520 c0 -5 5 -10 11 -10 5 0 7 5 4 10 -3 6 -8 10 -11 10 -2 0
-4 -4 -4 -10z"/>
<path d="M6806 3478 c3 -5 9 -7 12 -4 3 3 12 0 21 -6 13 -10 14 -10 4 2 -15
16 -46 23 -37 8z"/>
<path d="M6775 3471 c-6 -11 13 -26 22 -17 4 3 1 6 -6 6 -7 0 -9 5 -6 10 3 6
4 10 1 10 -3 0 -7 -4 -11 -9z"/>
<path d="M6786 3416 c3 -8 13 -17 22 -21 13 -5 13 -2 -3 15 -21 24 -26 25 -19
6z"/>
<path d="M730 3340 c0 -5 5 -10 11 -10 5 0 7 5 4 10 -3 6 -8 10 -11 10 -2 0
-4 -4 -4 -10z"/>
<path d="M696 3327 c3 -10 9 -15 12 -12 3 3 0 11 -7 18 -10 9 -11 8 -5 -6z"/>
<path d="M6794 3314 c1 -8 4 -15 7 -16 2 -2 3 -1 2 1 -2 2 2 9 7 16 7 8 5 12
-4 12 -8 0 -13 -6 -12 -13z"/>
<path d="M737 3281 c-4 -17 -3 -21 5 -13 5 5 8 16 6 23 -3 8 -7 3 -11 -10z"/>
<path d="M6790 3246 c0 -2 7 -7 16 -10 8 -3 12 -2 9 4 -6 10 -25 14 -25 6z"/>
<path d="M746 3218 c3 -4 11 -5 19 -1 21 7 19 12 -4 10 -11 0 -18 -5 -15 -9z"/>
<path d="M6776 3222 c-2 -4 5 -19 16 -32 l20 -25 -16 27 c-12 20 -12 28 -3 31
9 4 9 6 0 6 -6 1 -14 -3 -17 -7z"/>
<path d="M679 3193 c-13 -16 -12 -17 4 -4 9 7 17 15 17 17 0 8 -8 3 -21 -13z"/>
<path d="M750 3170 c8 -5 20 -10 25 -10 6 0 3 5 -5 10 -8 5 -19 10 -25 10 -5
0 -3 -5 5 -10z"/>
<path d="M6777 3143 c-2 -5 -3 -15 -2 -23 0 -8 -6 -18 -15 -22 -11 -6 -10 -7
5 -5 13 1 20 10 20 22 -1 11 4 23 10 27 6 5 6 8 -2 8 -6 0 -14 -3 -16 -7z"/>
<path d="M716 3121 c-3 -5 2 -15 12 -22 15 -12 16 -12 5 2 -7 9 -10 19 -6 22
3 4 4 7 0 7 -3 0 -8 -4 -11 -9z"/>
<path d="M6806 3122 c-3 -5 1 -9 9 -9 8 0 12 4 9 9 -3 4 -7 8 -9 8 -2 0 -6 -4
-9 -8z"/>
<path d="M755 3100 c-3 -5 -1 -10 4 -10 6 0 11 5 11 10 0 6 -2 10 -4 10 -3 0
-8 -4 -11 -10z"/>
<path d="M756 3067 c3 -10 9 -15 12 -12 3 3 0 11 -7 18 -10 9 -11 8 -5 -6z"/>
<path d="M735 3051 c-3 -5 -2 -12 3 -15 5 -3 9 1 9 9 0 17 -3 19 -12 6z"/>
<path d="M6816 3033 c-6 -14 -5 -15 5 -6 7 7 10 15 7 18 -3 3 -9 -2 -12 -12z"/>
<path d="M706 3022 c-2 -4 4 -8 14 -8 10 0 16 4 14 8 -3 4 -9 8 -14 8 -5 0
-11 -4 -14 -8z"/>
<path d="M6813 2993 c0 -9 4 -10 14 -2 7 6 13 12 13 14 0 1 -6 2 -13 2 -8 0
-14 -6 -14 -14z"/>
<path d="M696 2987 c3 -10 9 -15 12 -12 3 3 0 11 -7 18 -10 9 -11 8 -5 -6z"/>
<path d="M716 2961 c-3 -5 2 -15 12 -22 15 -12 16 -12 5 2 -7 9 -10 19 -6 22
3 4 4 7 0 7 -3 0 -8 -4 -11 -9z"/>
<path d="M6770 2929 c0 -5 5 -7 10 -4 6 3 10 8 10 11 0 2 -4 4 -10 4 -5 0 -10
-5 -10 -11z"/>
<path d="M6830 2919 c0 -5 5 -7 10 -4 6 3 10 8 10 11 0 2 -4 4 -10 4 -5 0 -10
-5 -10 -11z"/>
<path d="M6790 2911 c0 -10 19 -25 25 -20 1 2 -3 10 -11 17 -8 7 -14 8 -14 3z"/>
<path d="M770 2890 c-8 -5 -10 -10 -5 -10 6 0 3 -5 -5 -10 -9 -6 -10 -10 -3
-10 7 0 17 9 23 20 12 23 11 24 -10 10z"/>
<path d="M6813 2857 c-3 -6 -1 -7 5 -3 7 4 12 2 12 -5 0 -8 3 -9 13 0 8 6 17
9 20 6 4 -3 5 -2 2 2 -8 11 -45 11 -52 0z"/>
<path d="M737 2849 c7 -7 15 -10 18 -7 3 3 -2 9 -12 12 -14 6 -15 5 -6 -5z"/>
<path d="M739 2823 c-1 -5 0 -16 1 -27 1 -12 -2 -16 -11 -11 -8 5 -10 4 -5 -3
10 -16 11 -16 30 13 15 23 15 24 -1 18 -11 -4 -14 -3 -9 5 4 7 5 12 2 12 -3 0
-7 -3 -7 -7z"/>
<path d="M6825 2800 c-3 -5 -1 -10 5 -10 6 0 9 -4 6 -8 -3 -5 1 -9 9 -9 10 0
12 4 5 12 -5 7 -7 15 -3 18 3 4 1 7 -5 7 -6 0 -14 -4 -17 -10z"/>
<path d="M6869 2738 c14 -19 6 -42 -11 -32 -7 5 -8 2 -3 -5 6 -10 11 -9 23 3
15 15 15 17 -3 34 -17 15 -18 15 -6 0z"/>
<path d="M655 2700 c-3 -5 -1 -10 4 -10 6 0 11 5 11 10 0 6 -2 10 -4 10 -3 0
-8 -4 -11 -10z"/>
<path d="M693 2645 c0 -8 4 -12 9 -9 5 3 6 10 3 15 -9 13 -12 11 -12 -6z"/>
<path d="M670 2617 c0 -2 6 -10 14 -16 11 -9 16 -9 22 1 4 7 4 10 -1 6 -4 -4
-14 -3 -22 3 -7 6 -13 9 -13 6z"/>
<path d="M6892 2571 c-11 -6 -10 -10 0 -19 11 -8 14 -7 14 9 0 10 0 19 -1 19
0 0 -6 -4 -13 -9z"/>
<path d="M670 2560 c0 -5 5 -10 11 -10 5 0 7 5 4 10 -3 6 -8 10 -11 10 -2 0
-4 -4 -4 -10z"/>
<path d="M6933 2525 c0 -8 4 -15 9 -15 4 0 8 4 8 9 0 6 -4 12 -8 15 -5 3 -9
-1 -9 -9z"/>
<path d="M6910 2483 c0 -5 14 -9 31 -9 35 -2 33 5 -5 12 -14 2 -26 1 -26 -3z"/>
<path d="M590 2459 c0 -5 5 -7 10 -4 6 3 10 8 10 11 0 2 -4 4 -10 4 -5 0 -10
-5 -10 -11z"/>
<path d="M625 2460 c-3 -6 1 -7 9 -4 18 7 21 14 7 14 -6 0 -13 -4 -16 -10z"/>
<path d="M620 2426 c0 -2 8 -10 18 -17 15 -13 16 -12 3 4 -13 16 -21 21 -21
13z"/>
<path d="M550 2416 c0 -2 8 -10 18 -17 15 -13 16 -12 3 4 -13 16 -21 21 -21
13z"/>
<path d="M593 2366 c0 -17 30 -14 33 3 2 7 0 7 -3 1 -3 -7 -9 -8 -17 -1 -9 8
-13 7 -13 -3z"/>
<path d="M6940 2373 c0 -6 8 -17 18 -24 16 -13 16 -13 2 6 -8 11 -16 22 -17
24 -2 2 -3 0 -3 -6z"/>
<path d="M7010 2340 c0 -5 5 -10 11 -10 5 0 7 5 4 10 -3 6 -8 10 -11 10 -2 0
-4 -4 -4 -10z"/>
<path d="M596 2318 c3 -4 9 -8 15 -8 5 0 9 4 9 8 0 5 -7 9 -15 9 -8 0 -12 -4
-9 -9z"/>
<path d="M580 2296 c0 -2 7 -7 16 -10 8 -3 12 -2 9 4 -6 10 -25 14 -25 6z"/>
<path d="M6995 2283 c3 -3 0 -11 -5 -18 -7 -8 -5 -12 4 -12 14 0 16 22 3 32
-4 3 -5 2 -2 -2z"/>
<path d="M556 2241 c-3 -5 2 -15 12 -22 15 -12 16 -12 5 2 -7 9 -10 19 -6 22
3 4 4 7 0 7 -3 0 -8 -4 -11 -9z"/>
<path d="M499 2193 c-13 -17 -13 -17 6 -3 11 8 22 16 24 17 2 2 0 3 -6 3 -6 0
-17 -8 -24 -17z"/>
<path d="M6995 2180 c3 -5 8 -10 11 -10 2 0 4 5 4 10 0 6 -5 10 -11 10 -5 0
-7 -4 -4 -10z"/>
<path d="M7025 2098 c9 -22 33 -30 41 -15 4 7 3 9 -1 4 -5 -4 -17 1 -27 10
-17 15 -18 15 -13 1z"/>
<path d="M420 2066 c0 -2 8 -10 18 -17 15 -13 16 -12 3 4 -13 16 -21 21 -21
13z"/>
<path d="M475 2061 c-3 -5 -2 -12 3 -15 5 -3 9 1 9 9 0 17 -3 19 -12 6z"/>
<path d="M513 2043 c4 -3 3 -11 -3 -17 -6 -8 -3 -12 10 -12 15 0 16 4 9 18 -5
10 -13 18 -16 18 -3 0 -3 -3 0 -7z"/>
<path d="M453 2015 c0 -8 4 -12 9 -9 5 3 6 10 3 15 -9 13 -12 11 -12 -6z"/>
<path d="M453 1976 c-3 -6 -2 -8 2 -3 5 4 20 -3 34 -15 22 -20 23 -20 8 -2 -9
11 -15 23 -12 26 3 2 -2 5 -10 5 -9 0 -19 -5 -22 -11z"/>
<path d="M7090 1940 c0 -5 5 -10 11 -10 5 0 7 5 4 10 -3 6 -8 10 -11 10 -2 0
-4 -4 -4 -10z"/>
<path d="M486 1918 c3 -5 10 -6 15 -3 13 9 11 12 -6 12 -8 0 -12 -4 -9 -9z"/>
<path d="M457 1835 c-4 -8 -3 -16 1 -19 4 -3 9 4 9 15 2 23 -3 25 -10 4z"/>
<path d="M7010 1779 c0 -5 5 -7 10 -4 6 3 10 8 10 11 0 2 -4 4 -10 4 -5 0 -10
-5 -10 -11z"/>
<path d="M6830 1729 c0 -5 -5 -7 -12 -3 -7 4 -8 3 -4 -5 6 -9 11 -9 22 0 17
14 18 19 4 19 -5 0 -10 -5 -10 -11z"/>
<path d="M574 1718 c-4 -7 -4 -10 1 -6 4 4 15 2 24 -5 14 -11 14 -10 2 6 -16
20 -18 21 -27 5z"/>
<path d="M6770 1718 c0 -9 5 -20 10 -23 13 -8 13 5 0 25 -8 13 -10 13 -10 -2z"/>
<path d="M6900 1726 c0 -2 8 -10 18 -17 15 -13 16 -12 3 4 -13 16 -21 21 -21
13z"/>
<path d="M620 1705 c0 -2 6 -8 13 -14 10 -8 14 -7 14 2 0 8 -6 14 -14 14 -7 0
-13 -1 -13 -2z"/>
<path d="M6745 1700 c-3 -5 -2 -17 3 -26 8 -15 10 -15 15 0 5 12 3 15 -5 10
-8 -5 -9 -2 -5 9 7 19 2 23 -8 7z"/>
<path d="M695 1690 c-4 -6 -10 -8 -15 -5 -5 3 -11 1 -14 -4 -8 -13 22 -7 36 7
7 7 9 12 6 12 -4 0 -10 -5 -13 -10z"/>
<path d="M6804 1685 c-10 -8 -14 -15 -8 -15 6 0 17 7 24 15 16 19 9 19 -16 0z"/>
<path d="M6862 1684 c10 -10 20 -16 22 -13 3 3 -5 11 -17 18 -21 13 -21 12 -5
-5z"/>
<path d="M590 1681 c0 -6 4 -13 10 -16 6 -3 7 1 4 9 -7 18 -14 21 -14 7z"/>
<path d="M775 1670 c-4 -6 1 -7 11 -3 12 4 15 3 10 -5 -5 -8 -2 -10 9 -5 13 5
14 7 3 14 -17 11 -26 11 -33 -1z"/>
<path d="M710 1658 c0 -4 4 -8 9 -8 6 0 12 4 15 8 3 5 -1 9 -9 9 -8 0 -15 -4
-15 -9z"/>
<path d="M835 1638 c1 -13 -2 -28 -6 -34 -5 -6 -4 -11 4 -11 7 0 13 15 14 34
1 18 -2 33 -6 33 -4 0 -7 -10 -6 -22z"/>
<path d="M750 1641 c0 -6 4 -12 8 -15 5 -3 9 1 9 9 0 8 -4 15 -9 15 -4 0 -8
-4 -8 -9z"/>
<path d="M894 1642 c3 -5 0 -13 -6 -15 -9 -4 -10 -6 -1 -6 17 -1 25 16 12 25
-7 4 -9 3 -5 -4z"/>
<path d="M6740 1640 c8 -5 20 -10 25 -10 6 0 3 5 -5 10 -8 5 -19 10 -25 10 -5
0 -3 -5 5 -10z"/>
<path d="M6715 1619 c-11 -16 -1 -19 13 -3 7 8 8 14 3 14 -5 0 -13 -5 -16 -11z"/>
<path d="M910 1611 c0 -10 19 -25 25 -20 1 2 -3 10 -11 17 -8 7 -14 8 -14 3z"/>
<path d="M948 1608 c12 -6 22 -15 22 -20 0 -5 -4 -6 -10 -3 -5 3 -10 1 -10 -4
0 -6 3 -11 8 -11 13 0 34 17 32 26 -1 5 3 10 8 12 17 5 7 -30 -11 -40 -9 -5
-17 -14 -17 -19 0 -6 7 -3 16 5 21 21 29 20 31 -5 2 -17 -1 -18 -13 -9 -10 9
-14 9 -14 1 0 -6 4 -11 9 -11 5 0 12 -7 15 -16 4 -12 2 -15 -9 -10 -8 3 -14 0
-12 -7 1 -7 -3 -11 -9 -10 -6 1 -11 -4 -11 -12 0 -9 12 -5 36 13 20 15 38 30
39 35 2 4 7 5 11 3 4 -3 8 1 8 9 0 8 -5 15 -10 15 -5 0 -3 8 4 17 10 11 10 14
2 9 -7 -4 -13 -3 -13 3 0 19 -49 44 -63 33 -8 -7 -18 -7 -27 -2 -8 6 -19 9
-25 9 -5 0 0 -5 13 -11z m85 -27 c-2 -6 1 -11 5 -11 14 0 11 -38 -4 -51 -17
-14 -19 2 -2 19 8 8 9 12 1 12 -6 0 -10 8 -9 18 2 9 -2 21 -8 25 -7 6 -6 7 4
4 8 -2 14 -10 13 -16z"/>
<path d="M880 1606 c0 -2 8 -10 18 -17 15 -13 16 -12 3 4 -13 16 -21 21 -21
13z"/>
<path d="M6775 1591 c-3 -5 -2 -12 3 -15 5 -3 9 1 9 9 0 17 -3 19 -12 6z"/>
<path d="M6693 1573 c-3 -7 -9 -10 -14 -7 -5 3 -6 -2 -2 -12 5 -15 7 -14 17 3
6 11 16 18 23 16 6 -2 13 0 16 4 3 5 -4 9 -15 9 -11 0 -22 -6 -25 -13z"/>
<path d="M833 1565 c0 -8 4 -12 9 -9 5 3 6 10 3 15 -9 13 -12 11 -12 -6z"/>
<path d="M925 1560 c3 -5 8 -10 11 -10 2 0 4 5 4 10 0 6 -5 10 -11 10 -5 0 -7
-4 -4 -10z"/>
<path d="M907 1539 c7 -7 15 -10 18 -7 3 3 -2 9 -12 12 -14 6 -15 5 -6 -5z"/>
<path d="M6756 1527 c3 -10 9 -15 12 -12 3 3 0 11 -7 18 -10 9 -11 8 -5 -6z"/>
<path d="M962 1516 c7 -8 15 -12 17 -11 5 6 -10 25 -20 25 -5 0 -4 -6 3 -14z"/>
<path d="M6670 1521 c0 -10 19 -25 25 -20 1 2 -3 10 -11 17 -8 7 -14 8 -14 3z"/>
<path d="M6713 1514 c0 -9 4 -11 12 -4 7 5 14 9 16 7 2 -1 3 0 1 2 -7 11 -29
7 -29 -5z"/>
<path d="M1037 1493 c-4 -3 -7 -11 -7 -17 0 -6 5 -5 12 2 6 6 9 14 7 17 -3 3
-9 2 -12 -2z"/>
<path d="M6699 1473 c-13 -17 -13 -17 6 -3 11 8 22 16 24 17 2 2 0 3 -6 3 -6
0 -17 -8 -24 -17z"/>
<path d="M6750 1481 c0 -6 4 -13 10 -16 6 -3 7 1 4 9 -7 18 -14 21 -14 7z"/>
<path d="M1000 1466 c0 -2 7 -7 16 -10 8 -3 12 -2 9 4 -6 10 -25 14 -25 6z"/>
<path d="M980 1445 c0 -2 6 -8 13 -14 10 -8 14 -7 14 2 0 8 -6 14 -14 14 -7 0
-13 -1 -13 -2z"/>
<path d="M1040 1434 c0 -9 -5 -12 -12 -8 -7 5 -8 3 -3 -6 6 -10 10 -10 20 3 9
13 15 14 25 4 12 -10 12 -9 1 6 -17 21 -31 22 -31 1z"/>
<path d="M6667 1431 c-4 -17 -3 -21 5 -13 5 5 8 16 6 23 -3 8 -7 3 -11 -10z"/>
<path d="M6735 1420 c3 -5 8 -10 11 -10 2 0 4 5 4 10 0 6 -5 10 -11 10 -5 0
-7 -4 -4 -10z"/>
<path d="M6686 1405 c-18 -14 -18 -14 1 -12 11 0 20 7 20 14 0 7 -1 13 -1 13
-1 0 -9 -7 -20 -15z"/>
<path d="M1000 1400 c8 -5 20 -10 25 -10 6 0 3 5 -5 10 -8 5 -19 10 -25 10 -5
0 -3 -5 5 -10z"/>
<path d="M1044 1398 c-4 -7 -4 -10 1 -6 4 4 14 3 22 -4 11 -8 12 -7 7 6 -7 19
-20 21 -30 4z"/>
<path d="M6716 1367 c3 -10 9 -15 12 -12 3 3 0 11 -7 18 -10 9 -11 8 -5 -6z"/>
<path d="M6671 1313 c7 -12 15 -20 18 -17 3 2 -3 12 -13 22 -17 16 -18 16 -5
-5z"/>
<path d="M1039 1293 c-13 -16 -12 -17 4 -4 9 7 17 15 17 17 0 8 -8 3 -21 -13z"/>
<path d="M6735 1300 c-3 -5 -1 -10 4 -10 6 0 11 5 11 10 0 6 -2 10 -4 10 -3 0
-8 -4 -11 -10z"/>
<path d="M1057 1276 c-4 -10 -1 -13 8 -9 8 3 12 9 9 14 -7 12 -11 11 -17 -5z"/>
<path d="M6710 1280 c0 -5 5 -10 11 -10 5 0 7 5 4 10 -3 6 -8 10 -11 10 -2 0
-4 -4 -4 -10z"/>
<path d="M1056 1233 c-4 -11 -1 -11 14 -3 24 13 25 17 5 17 -8 0 -16 -6 -19
-14z"/>
<path d="M6736 1178 c3 -5 10 -6 15 -3 13 9 11 12 -6 12 -8 0 -12 -4 -9 -9z"/>
<path d="M1054 1169 c-3 -6 -2 -15 3 -20 5 -5 9 -1 9 11 0 23 -2 24 -12 9z"/>
<path d="M6716 1127 c3 -10 9 -15 12 -12 3 3 0 11 -7 18 -10 9 -11 8 -5 -6z"/>
<path d="M1020 1126 c0 -2 8 -10 18 -17 15 -13 16 -12 3 4 -13 16 -21 21 -21
13z"/>
<path d="M1056 1118 c3 -4 11 -5 19 -1 21 7 19 12 -4 10 -11 0 -18 -5 -15 -9z"/>
<path d="M6686 1062 c-3 -5 1 -9 9 -9 8 0 12 4 9 9 -3 4 -7 8 -9 8 -2 0 -6 -4
-9 -8z"/>
<path d="M1056 1001 c9 -9 34 -9 34 -1 0 5 -9 8 -20 7 -10 -1 -17 -3 -14 -6z"/>
<path d="M6430 973 c5 -2 8 -9 5 -13 -3 -5 -1 -11 4 -14 5 -4 8 2 7 11 -2 9
-8 18 -15 19 -6 1 -7 0 -1 -3z"/>
<path d="M6200 956 c7 -7 13 -7 20 0 6 6 3 10 -10 10 -13 0 -16 -4 -10 -10z"/>
<path d="M6306 943 c-6 -14 -5 -15 5 -6 7 7 10 15 7 18 -3 3 -9 -2 -12 -12z"/>
<path d="M6234 921 c2 -42 11 -46 12 -5 0 19 -2 34 -6 34 -4 0 -7 -13 -6 -29z"/>
<path d="M6566 942 c-3 -5 1 -9 9 -9 8 0 12 4 9 9 -3 4 -7 8 -9 8 -2 0 -6 -4
-9 -8z"/>
<path d="M6180 920 c-9 -6 -10 -10 -3 -10 6 0 15 5 18 10 8 12 4 12 -15 0z"/>
<path d="M6320 920 c-9 -6 -10 -10 -3 -10 6 0 15 5 18 10 8 12 4 12 -15 0z"/>
<path d="M999 873 c-13 -16 -12 -17 4 -4 16 13 21 21 13 21 -2 0 -10 -8 -17
-17z"/>
<path d="M6320 880 c-9 -6 -10 -10 -3 -10 6 0 15 5 18 10 8 12 4 12 -15 0z"/>
<path d="M6466 882 c-3 -5 1 -9 9 -9 8 0 12 4 9 9 -3 4 -7 8 -9 8 -2 0 -6 -4
-9 -8z"/>
<path d="M6119 868 c-4 -12 -5 -57 0 -53 6 6 10 55 4 55 -1 0 -3 -1 -4 -2z"/>
<path d="M1091 847 c-8 -10 -7 -14 2 -14 8 0 14 6 14 14 0 7 -1 13 -2 13 -2 0
-8 -6 -14 -13z"/>
<path d="M6070 849 c0 -5 -6 -7 -12 -3 -7 4 -9 3 -5 -1 13 -15 36 -14 30 1 -6
17 -13 18 -13 3z"/>
<path d="M5996 839 c2 -4 -2 -9 -8 -12 -7 -2 -11 -7 -8 -10 3 -3 16 3 30 13
24 18 24 19 3 17 -12 0 -20 -4 -17 -8z"/>
<path d="M6030 820 c0 -5 5 -10 10 -10 6 0 10 5 10 10 0 6 -4 10 -10 10 -5 0
-10 -4 -10 -10z"/>
<path d="M1095 811 c-3 -5 -2 -12 3 -15 5 -3 9 1 9 9 0 17 -3 19 -12 6z"/>
<path d="M6005 800 c3 -5 8 -10 11 -10 2 0 4 5 4 10 0 6 -5 10 -11 10 -5 0 -7
-4 -4 -10z"/>
<path d="M5974 789 c1 -7 13 -14 27 -16 18 -2 20 -1 9 6 -8 5 -17 8 -21 5 -4
-2 -10 1 -12 6 -3 6 -4 5 -3 -1z"/>
<path d="M6095 780 c3 -5 8 -10 11 -10 2 0 4 5 4 10 0 6 -5 10 -11 10 -5 0 -7
-4 -4 -10z"/>
<path d="M3620 758 c0 -6 3 -8 7 -5 3 4 12 2 20 -5 11 -8 12 -7 7 6 -7 18 -34
22 -34 4z"/>
<path d="M3710 762 c0 -5 7 -9 15 -9 8 0 12 4 9 9 -3 4 -9 8 -15 8 -5 0 -9 -4
-9 -8z"/>
<path d="M3786 753 c-6 -14 -5 -15 5 -6 7 7 10 15 7 18 -3 3 -9 -2 -12 -12z"/>
<path d="M3870 760 c0 -5 5 -10 10 -10 6 0 10 5 10 10 0 6 -4 10 -10 10 -5 0
-10 -4 -10 -10z"/>
<path d="M3990 756 c0 -2 8 -10 18 -17 15 -13 16 -12 3 4 -13 16 -21 21 -21
13z"/>
<path d="M3526 738 c3 -5 10 -6 15 -3 13 9 11 12 -6 12 -8 0 -12 -4 -9 -9z"/>
<path d="M1075 720 c3 -5 8 -10 11 -10 2 0 4 5 4 10 0 6 -5 10 -11 10 -5 0 -7
-4 -4 -10z"/>
<path d="M4067 716 c-6 -16 3 -36 16 -36 5 0 7 3 4 6 -3 4 -2 14 3 24 6 12 5
17 -5 17 -8 0 -16 -5 -18 -11z"/>
<path d="M5955 721 c-6 -11 13 -26 22 -17 4 3 1 6 -6 6 -7 0 -9 5 -6 10 3 6 4
10 1 10 -3 0 -7 -4 -11 -9z"/>
<path d="M4143 688 c0 -20 1 -24 4 -10 5 25 18 29 27 7 3 -8 11 -15 17 -15 7
0 0 11 -15 25 -15 14 -28 25 -29 25 -2 0 -3 -15 -4 -32z"/>
<path d="M3770 686 c0 -2 7 -7 16 -10 8 -3 12 -2 9 4 -6 10 -25 14 -25 6z"/>
<path d="M4215 680 c-3 -5 -1 -10 4 -10 6 0 11 5 11 10 0 6 -2 10 -4 10 -3 0
-8 -4 -11 -10z"/>
<path d="M4116 667 c3 -10 9 -15 12 -12 3 3 0 11 -7 18 -10 9 -11 8 -5 -6z"/>
<path d="M4267 664 c6 -15 23 -19 23 -5 0 5 -7 11 -14 14 -10 4 -13 1 -9 -9z"/>
<path d="M3506 662 c-3 -5 1 -9 9 -9 8 0 15 4 15 9 0 4 -4 8 -9 8 -6 0 -12 -4
-15 -8z"/>
<path d="M3577 663 c-8 -7 11 -33 24 -33 5 0 9 8 9 18 0 14 -2 15 -10 2 -9
-13 -14 -7 -11 13 1 9 -4 9 -12 0z"/>
<path d="M3718 663 c7 -3 16 -2 19 1 4 3 -2 6 -13 5 -11 0 -14 -3 -6 -6z"/>
<path d="M3760 660 c8 -5 20 -10 25 -10 6 0 3 5 -5 10 -8 5 -19 10 -25 10 -5
0 -3 -5 5 -10z"/>
<path d="M4080 666 c0 -2 7 -7 16 -10 8 -3 12 -2 9 4 -6 10 -25 14 -25 6z"/>
<path d="M4159 663 c-5 -29 -5 -53 -1 -48 7 6 12 55 6 55 -2 0 -5 -3 -5 -7z"/>
<path d="M4231 653 c-9 -16 -12 -16 -21 -3 -6 9 -10 10 -10 3 0 -20 22 -27 35
-10 7 9 16 13 20 9 5 -4 5 -1 1 6 -9 16 -13 15 -25 -5z"/>
<path d="M4315 660 c3 -6 1 -10 -6 -10 -7 0 -10 -3 -6 -6 3 -3 13 -2 22 4 16
8 16 9 1 15 -10 4 -15 3 -11 -3z"/>
<path d="M3437 645 c3 -8 9 -12 14 -9 12 7 11 11 -5 17 -10 4 -13 1 -9 -8z"/>
<path d="M4009 643 c-13 -16 -12 -17 4 -4 16 13 21 21 13 21 -2 0 -10 -8 -17
-17z"/>
<path d="M1230 640 c0 -5 9 -8 20 -7 21 1 18 10 -5 13 -8 1 -15 -2 -15 -6z"/>
<path d="M1460 639 c0 -5 5 -7 10 -4 6 3 10 8 10 11 0 2 -4 4 -10 4 -5 0 -10
-5 -10 -11z"/>
<path d="M3388 643 c10 -4 10 -8 0 -21 -12 -15 -11 -16 4 -4 9 8 23 11 30 7 7
-4 4 1 -6 9 -11 9 -25 16 -30 15 -6 0 -5 -3 2 -6z"/>
<path d="M3740 646 c0 -2 8 -10 18 -17 15 -13 16 -12 3 4 -13 16 -21 21 -21
13z"/>
<path d="M4350 638 c0 -4 4 -8 9 -8 6 0 12 4 15 8 3 5 -1 9 -9 9 -8 0 -15 -4
-15 -9z"/>
<path d="M1500 629 c0 -5 -4 -8 -9 -4 -5 3 -12 1 -15 -4 -4 -5 2 -8 11 -7 15
3 33 26 19 26 -3 0 -6 -5 -6 -11z"/>
<path d="M3530 619 c0 -5 5 -7 10 -4 6 3 10 8 10 11 0 2 -4 4 -10 4 -5 0 -10
-5 -10 -11z"/>
<path d="M3895 621 c-3 -5 -2 -12 3 -15 5 -3 9 1 9 9 0 17 -3 19 -12 6z"/>
<path d="M3930 620 c0 -5 5 -10 11 -10 5 0 7 5 4 10 -3 6 -8 10 -11 10 -2 0
-4 -4 -4 -10z"/>
<path d="M4273 615 c0 -8 4 -12 9 -9 4 3 8 9 8 15 0 5 -4 9 -8 9 -5 0 -9 -7
-9 -15z"/>
<path d="M4307 619 c7 -7 15 -10 18 -7 3 3 -2 9 -12 12 -14 6 -15 5 -6 -5z"/>
<path d="M3355 609 c-4 -6 -5 -12 -2 -15 2 -3 7 2 10 11 7 17 1 20 -8 4z"/>
<path d="M4427 607 c-3 -8 0 -14 7 -14 7 0 13 6 13 14 0 7 -4 13 -8 13 -4 0
-9 -6 -12 -13z"/>
<path d="M3060 600 c0 -5 5 -10 11 -10 5 0 7 5 4 10 -3 6 -8 10 -11 10 -2 0
-4 -4 -4 -10z"/>
<path d="M3220 600 c-8 -5 0 -7 18 -7 17 1 29 4 26 6 -8 9 -31 9 -44 1z"/>
<path d="M3319 593 c-13 -16 -12 -17 4 -4 16 13 21 21 13 21 -2 0 -10 -8 -17
-17z"/>
<path d="M5940 600 c-9 -6 -10 -10 -3 -10 6 0 15 5 18 10 8 12 4 12 -15 0z"/>
<path d="M1658 593 c0 -5 -2 -12 -2 -18 -1 -5 -7 -20 -14 -32 -9 -17 -9 -23 0
-29 7 -4 10 -4 6 1 -4 4 -2 17 5 29 11 20 18 56 11 56 -2 0 -5 -3 -6 -7z"/>
<path d="M3027 584 c6 -15 23 -19 23 -5 0 5 -7 11 -14 14 -10 4 -13 1 -9 -9z"/>
<path d="M4293 585 c0 -8 4 -12 9 -9 5 3 6 10 3 15 -9 13 -12 11 -12 -6z"/>
<path d="M1316 578 c3 -4 11 -5 19 -1 21 7 19 12 -4 10 -11 0 -18 -5 -15 -9z"/>
<path d="M2990 568 c-10 -21 -10 -21 3 -6 8 10 18 14 22 10 5 -4 5 -1 1 6 -10
17 -14 15 -26 -10z"/>
<path d="M3395 580 c3 -5 8 -10 11 -10 2 0 4 5 4 10 0 6 -5 10 -11 10 -5 0 -7
-4 -4 -10z"/>
<path d="M4464 582 c4 -3 14 -7 22 -8 9 -1 13 0 10 4 -4 3 -14 7 -22 8 -9 1
-13 0 -10 -4z"/>
<path d="M5910 581 c0 -6 4 -13 10 -16 6 -3 7 1 4 9 -7 18 -14 21 -14 7z"/>
<path d="M1625 561 c-4 -12 -12 -18 -21 -14 -7 3 -14 3 -14 0 0 -3 7 -7 15
-11 14 -5 42 30 32 41 -3 2 -8 -5 -12 -16z"/>
<path d="M3080 571 c0 -6 4 -13 10 -16 6 -3 7 1 4 9 -7 18 -14 21 -14 7z"/>
<path d="M3118 573 c7 -3 16 -2 19 1 4 3 -2 6 -13 5 -11 0 -14 -3 -6 -6z"/>
<path d="M4236 567 c3 -10 9 -15 12 -12 3 3 0 11 -7 18 -10 9 -11 8 -5 -6z"/>
<path d="M2905 550 c-3 -6 1 -7 9 -4 18 7 21 14 7 14 -6 0 -13 -4 -16 -10z"/>
<path d="M2952 551 c-11 -6 -9 -9 6 -13 15 -4 19 -2 15 8 -6 16 -4 16 -21 5z"/>
<path d="M4555 551 c-3 -5 -2 -12 3 -15 5 -3 9 1 9 9 0 17 -3 19 -12 6z"/>
<path d="M3000 540 c-9 -6 -10 -10 -3 -10 6 0 15 5 18 10 8 12 4 12 -15 0z"/>
<path d="M4495 540 c3 -5 8 -10 11 -10 2 0 4 5 4 10 0 6 -5 10 -11 10 -5 0 -7
-4 -4 -10z"/>
<path d="M4640 540 c-9 -6 -10 -10 -3 -10 6 0 15 5 18 10 8 12 4 12 -15 0z"/>
<path d="M5973 529 c-2 -23 3 -25 10 -4 4 8 3 16 -1 19 -4 3 -9 -4 -9 -15z"/>
<path d="M1570 536 c0 -2 8 -10 18 -17 15 -13 16 -12 3 4 -13 16 -21 21 -21
13z"/>
<path d="M2890 526 c0 -2 7 -7 16 -10 8 -3 12 -2 9 4 -6 10 -25 14 -25 6z"/>
<path d="M3030 526 c0 -2 7 -7 16 -10 8 -3 12 -2 9 4 -6 10 -25 14 -25 6z"/>
<path d="M4790 520 c0 -5 5 -10 11 -10 5 0 7 5 4 10 -3 6 -8 10 -11 10 -2 0
-4 -4 -4 -10z"/>
<path d="M5894 522 c4 -3 14 -7 22 -8 9 -1 13 0 10 4 -4 3 -14 7 -22 8 -9 1
-13 0 -10 -4z"/>
<path d="M2797 513 c-10 -9 -9 -23 1 -23 5 0 9 7 9 15 0 17 -1 18 -10 8z"/>
<path d="M1650 500 c-9 -6 -10 -10 -3 -10 6 0 15 5 18 10 8 12 4 12 -15 0z"/>
<path d="M2875 500 c-3 -5 -1 -10 4 -10 6 0 11 5 11 10 0 6 -2 10 -4 10 -3 0
-8 -4 -11 -10z"/>
<path d="M4615 500 c-3 -5 -1 -10 4 -10 6 0 11 5 11 10 0 6 -2 10 -4 10 -3 0
-8 -4 -11 -10z"/>
<path d="M4746 498 c3 -4 9 -8 15 -8 5 0 9 4 9 8 0 5 -7 9 -15 9 -8 0 -12 -4
-9 -9z"/>
<path d="M2755 483 c3 -3 0 -11 -5 -18 -7 -8 -5 -12 4 -12 14 0 16 22 3 32 -4
3 -5 2 -2 -2z"/>
<path d="M4853 475 c0 -8 4 -12 9 -9 4 3 8 9 8 15 0 5 -4 9 -8 9 -5 0 -9 -7
-9 -15z"/>
<path d="M4954 466 c1 -8 5 -18 8 -22 4 -3 5 1 4 10 -1 8 -5 18 -8 22 -4 3 -5
-1 -4 -10z"/>
<path d="M1664 450 c0 -9 7 -16 16 -16 9 0 16 7 16 16 0 9 -7 16 -16 16 -9 0
-16 -7 -16 -16z"/>
<path d="M5875 460 c-3 -5 -1 -10 4 -10 6 0 11 5 11 10 0 6 -2 10 -4 10 -3 0
-8 -4 -11 -10z"/>
<path d="M5930 459 c0 -5 5 -7 10 -4 6 3 10 8 10 11 0 2 -4 4 -10 4 -5 0 -10
-5 -10 -11z"/>
<path d="M2555 449 c-4 -6 -5 -12 -2 -15 2 -3 7 2 10 11 7 17 1 20 -8 4z"/>
<path d="M2649 443 c-13 -16 -12 -17 4 -4 16 13 21 21 13 21 -2 0 -10 -8 -17
-17z"/>
<path d="M2574 439 c-3 -6 -3 -13 0 -16 3 -4 6 -1 6 5 0 6 7 9 15 6 8 -4 15
-4 15 -1 0 11 -30 16 -36 6z"/>
<path d="M5006 442 c-2 -4 4 -8 14 -8 10 0 16 4 14 8 -3 4 -9 8 -14 8 -5 0
-11 -4 -14 -8z"/>
<path d="M2510 436 c0 -2 8 -10 18 -17 15 -13 16 -12 3 4 -13 16 -21 21 -21
13z"/>
<path d="M5867 427 c-3 -8 1 -14 8 -14 7 0 11 6 8 14 -3 7 -6 13 -8 13 -2 0
-5 -6 -8 -13z"/>
<path d="M2475 421 c-3 -5 0 -13 6 -17 7 -4 9 -3 5 4 -3 5 0 13 6 15 9 4 10 6
1 6 -6 1 -14 -3 -18 -8z"/>
<path d="M4930 419 c0 -5 5 -7 10 -4 6 3 10 8 10 11 0 2 -4 4 -10 4 -5 0 -10
-5 -10 -11z"/>
<path d="M5158 413 c7 -3 16 -2 19 1 4 3 -2 6 -13 5 -11 0 -14 -3 -6 -6z"/>
<path d="M5113 395 c0 -8 4 -12 9 -9 5 3 6 10 3 15 -9 13 -12 11 -12 -6z"/>
<path d="M2428 383 c7 -3 16 -2 19 1 4 3 -2 6 -13 5 -11 0 -14 -3 -6 -6z"/>
<path d="M2466 378 c3 -5 10 -6 15 -3 13 9 11 12 -6 12 -8 0 -12 -4 -9 -9z"/>
<path d="M2530 379 c0 -5 5 -7 10 -4 6 3 10 8 10 11 0 2 -4 4 -10 4 -5 0 -10
-5 -10 -11z"/>
<path d="M5855 381 c-3 -7 -1 -10 6 -9 7 2 13 -2 14 -9 0 -6 3 -14 7 -18 3 -4
5 0 4 9 -3 24 -22 40 -31 27z"/>
<path d="M4996 367 c3 -10 9 -15 12 -12 3 3 0 11 -7 18 -10 9 -11 8 -5 -6z"/>
<path d="M5294 360 c0 -12 4 -16 11 -11 5 5 18 7 28 6 9 -2 17 1 17 7 0 5 -6
8 -12 5 -7 -2 -20 -1 -28 4 -11 5 -16 2 -16 -11z"/>
<path d="M5147 359 c7 -7 15 -10 18 -7 3 3 -2 9 -12 12 -14 6 -15 5 -6 -5z"/>
<path d="M2475 350 c-4 -6 -11 -7 -17 -4 -7 4 -8 2 -4 -5 6 -9 11 -9 22 0 14
11 18 19 10 19 -3 0 -8 -5 -11 -10z"/>
<path d="M2215 339 c-4 -6 -5 -12 -2 -15 2 -3 7 2 10 11 7 17 1 20 -8 4z"/>
<path d="M2172 332 c-7 -5 -14 -19 -17 -32 -2 -12 -3 -21 -1 -19 3 2 4 7 3 10
-1 4 7 16 17 28 20 22 20 26 -2 13z"/>
<path d="M5335 331 c-3 -5 -2 -12 3 -15 5 -3 9 1 9 9 0 17 -3 19 -12 6z"/>
<path d="M5436 327 c3 -10 9 -15 12 -12 3 3 0 11 -7 18 -10 9 -11 8 -5 -6z"/>
<path d="M5390 321 c0 -6 4 -12 8 -15 5 -3 9 1 9 9 0 8 -4 15 -9 15 -4 0 -8
-4 -8 -9z"/>
<path d="M5836 313 c-6 -14 -5 -15 5 -6 7 7 10 15 7 18 -3 3 -9 -2 -12 -12z"/>
<path d="M2120 300 c-9 -6 -10 -10 -3 -10 6 0 15 5 18 10 8 12 4 12 -15 0z"/>
<path d="M5548 303 c10 -4 10 -8 0 -21 -12 -15 -11 -16 4 -3 19 14 15 32 -5
30 -8 0 -8 -2 1 -6z"/>
<path d="M5455 291 c-3 -5 -2 -12 3 -15 5 -3 9 1 9 9 0 17 -3 19 -12 6z"/>
<path d="M2030 256 c7 -7 13 -7 20 0 6 6 3 10 -10 10 -13 0 -16 -4 -10 -10z"/>
<path d="M2107 259 c7 -7 15 -10 18 -7 3 3 -2 9 -12 12 -14 6 -15 5 -6 -5z"/>
<path d="M1955 240 c2 -27 10 -33 12 -10 1 11 -2 22 -6 24 -4 3 -7 -4 -6 -14z"/>
<path d="M1699 233 c-13 -16 -12 -17 4 -4 16 13 21 21 13 21 -2 0 -10 -8 -17
-17z"/>
<path d="M1986 238 c3 -5 10 -6 15 -3 13 9 11 12 -6 12 -8 0 -12 -4 -9 -9z"/>
<path d="M5715 220 c-3 -5 -1 -10 4 -10 6 0 11 5 11 10 0 6 -2 10 -4 10 -3 0
-8 -4 -11 -10z"/>
<path d="M5515 209 c-4 -6 -5 -12 -2 -15 2 -3 7 2 10 11 7 17 1 20 -8 4z"/>
</g>
</svg>
