<svg xmlns="http://www.w3.org/2000/svg" id="Groupe_1" width="838" height="868" data-name="Groupe 1" viewBox="0 0 838 868"><defs><style>.cls-2,.cls-3,.cls-4{fill-rule:evenodd}.cls-2{fill:#9fcbe7}.cls-3{fill:#75ab88}.cls-4{fill:#b3e099}</style><filter id="filter" width="776" height="788" x="21" y="33" filterUnits="userSpaceOnUse"><feOffset in="SourceAlpha" result="offset"/><feGaussianBlur result="blur" stdDeviation="6.2"/><feFlood flood-opacity=".6" result="flood"/><feComposite in2="blur" operator="in" result="composite"/><feBlend in="SourceGraphic" result="blend"/></filter><filter id="filter-2" width="770" height="782" x="56" y="36" filterUnits="userSpaceOnUse"><feOffset in="SourceAlpha" result="offset"/><feGaussianBlur result="blur" stdDeviation="6.2"/><feFlood flood-opacity=".6" result="flood"/><feComposite in2="blur" operator="in" result="composite"/><feBlend in="SourceGraphic" result="blend"/></filter><filter id="filter-3" width="669" height="687" x="85" y="91" filterUnits="userSpaceOnUse"><feOffset in="SourceAlpha" result="offset"/><feGaussianBlur result="blur" stdDeviation="6.2"/><feFlood flood-opacity=".6" result="flood"/><feComposite in2="blur" operator="in" result="composite"/><feBlend in="SourceGraphic" result="blend"/></filter></defs><path id="Rectangle_1_copie" fill="#fff" fill-rule="evenodd" d="M60.3 233.3L590.5 72.4l166.1 547.4-530.1 160.9z" data-name="Rectangle 1 copie" filter="url(#filter)"/><path id="Forme_3_copie" d="M216.8 659.2L92.2 248.7l482.3-146.4 48.4 159.5-138-52.5-80.6 212.1-85.6-31z" class="cls-2" data-name="Forme 3 copie"/><path id="Forme_2_copie" d="M317.4 388.6L215.7 659.1 699.1 513l-76.7-252.5-138.9-54.1-80 214.7z" class="cls-3" data-name="Forme 2 copie"/><path id="Forme_4_copie" d="M527.5 223l-48.2 130h-.2L431.7 481l-.8-.2-.1.5-130-48.3 16.4-44.7 86.2 32 31.8-85.8h.1l47.5-128.1z" class="cls-4" data-name="Forme 4 copie"/><path fill="#fff" fill-rule="evenodd" d="M252.9 75.3L785.4 228 627.8 777.8 95.2 625.1z" filter="url(#filter-2)"/><path id="Forme_3" d="M153 517.9l118.3-412.4 484.5 139-46 160-87.3-118.9L439.6 420l-55-72.5z" class="cls-2" data-name="Forme 3"/><path id="Forme_2" d="M384.5 345.3l-232.3 172 485.3 139.5 72.7-253.6-87.2-121-183.8 137z" class="cls-3" data-name="Forme 2"/><path id="Forme_4" d="M650.8 320.2l-111 83h-.2L430.2 485l-.5-.6-.4.3-83-111.1 38.1-28.6 55 73.6 73.3-54.8v.2L622.3 282z" class="cls-4" data-name="Forme 4"/><path fill="#fff" fill-rule="evenodd" d="M124.1 166.5L677 130.7l36.9 570.8L161 737.3z" filter="url(#filter-3)"/><path id="Forme_3-2" d="M179.3 616.8l-27.7-428 503-32.6 10.7 166.3L543 239.9 416 428.1 340 378.3z" class="cls-2" data-name="Forme 3"/><path id="Forme_2-2" d="M339 376.3L178.3 616.5l504-32.2-17-263.3-123-84.4-126.9 190.9z" class="cls-3" data-name="Forme 2"/><path id="Forme_4-2" d="M581.3 263l-76.6 115.6-.1-.1-75.5 114-.6-.5-.3.4-115.6-76.6L339 376l76.6 50.8 50.5-76.2h.1l75.5-113.9z" class="cls-4" data-name="Forme 4"/></svg>