<svg xmlns="http://www.w3.org/2000/svg" id="Groupe_1" width="838" height="868" viewBox="0 0 838 868" data-name="Groupe 1"><defs><style>.cls-1{fill:#fff}.cls-1,.cls-2,.cls-3,.cls-4{fill-rule:evenodd}.cls-1{filter:url(#filter)}.cls-2{fill:#9fcbe7}.cls-3{fill:#75ab88}.cls-4{fill:#b3e099}</style><filter id="filter" width="845" height="853" x="-3" y="8" filterUnits="userSpaceOnUse"><feOffset in="SourceAlpha" result="offset"/><feGaussianBlur result="blur" stdDeviation="6.2"/><feFlood flood-opacity=".6" result="flood"/><feComposite in2="blur" operator="in" result="composite"/><feBlend in="SourceGraphic" result="blend"/></filter><filter id="filter-3" width="633" height="651" x="103" y="109" filterUnits="userSpaceOnUse"><feOffset in="SourceAlpha" result="offset"/><feGaussianBlur result="blur" stdDeviation="6.2"/><feFlood flood-opacity=".6" result="flood"/><feComposite in2="blur" operator="in" result="composite"/><feBlend in="SourceGraphic" result="blend"/></filter></defs><path id="Rectangle_1_copie" d="M322.1 47.8l479.8 277-286 495.4L36 543.2z" class="cls-1" data-name="Rectangle 1 copie"/><path id="Forme_3_copie" d="M118.1 453.1L332.6 81.6l436.5 252-83.3 144.3-56-136.6-210 86.2-35.7-83.7z" class="cls-2" data-name="Forme 3 copie"/><path id="Forme_2_copie" d="M384.5 341.6l-267 110.6 437.1 253 132-228.6L631 338.2l-211.5 88.4z" class="cls-3" data-name="Forme 2 copie"/><path id="Forme_4_copie" d="M649 381.8l-128 53.7v-.2l-126 53-.3-.8-.5.2-53.6-127.9 43.9-18.5 35.5 84.8 84.4-35.5v.2l126-53z" class="cls-4" data-name="Forme 4 copie"/><path d="M36.1 324.8L516 47.8l286 495.4-479.8 277z" class="cls-1"/><path id="Forme_3" d="M285.1 704.1L70.6 332.6l436.5-252 83.3 144.3L444.1 205 413.8 430 323.4 419z" class="cls-2" data-name="Forme 3"/><path id="Forme_2" d="M321.7 417.7L284 704.2l437.6-252-132-228.6-147.5-21.2-29.2 227.4z" class="cls-3" data-name="Forme 2"/><path id="Forme_4" d="M488.7 208.7l-17.4 137.6h-.2L454 482h-.8v.4l-137.6-17.5 5.9-47.3 91.2 11.6 11.4-90.7h.2l17.2-135.6z" class="cls-4" data-name="Forme 4"/><path fill="#fff" d="M142 148h554v572H142z" filter="url(#filter-3)"/><path id="Forme_3-2" d="M168 601V172h504v166.6l-116.8-90.3L416.5 428l-72.9-54.6z" class="cls-2" data-name="Forme 3"/><path id="Forme_2-2" d="M342.9 371.3L167 600.6l505 .4V337.1L554.8 245l-139 182.3z" class="cls-3" data-name="Forme 2"/><path id="Forme_4-2" d="M592 273.8l-83.9 110.4h-.1L425.3 493l-.6-.5-.3.4L314 409l28.8-38 73.1 55.7 55.4-72.9.1.2L554 245z" class="cls-4" data-name="Forme 4"/></svg>